<?xml version="1.0" encoding="UTF-8"?>
<svg id="_圖層_1" data-name="圖層 1" xmlns="http://www.w3.org/2000/svg" xmlns:xlink="http://www.w3.org/1999/xlink" version="1.1" viewBox="0 0 303.65 303.65">
  <defs>
    <style>
      .cls-1 {
        clip-path: url(#clippath);
      }

      .cls-2 {
        fill: none;
      }

      .cls-2, .cls-3, .cls-4, .cls-5, .cls-6, .cls-7, .cls-8, .cls-9, .cls-10, .cls-11 {
        stroke-width: 0px;
      }

      .cls-3 {
        fill: #4ebea4;
      }

      .cls-4 {
        fill: #000;
      }

      .cls-5 {
        fill: url(#_未命名漸層_8);
      }

      .cls-6 {
        fill: #40ba98;
      }

      .cls-7 {
        fill: #00e488;
      }

      .cls-8 {
        fill: url(#_未命名漸層_8-3);
      }

      .cls-9 {
        fill: url(#_未命名漸層_8-2);
      }

      .cls-10 {
        fill: #161a21;
      }

      .cls-11 {
        fill: #fff;
      }

      .cls-12 {
        display: none;
      }
    </style>
    <clipPath id="clippath">
      <polygon class="cls-2" points="-134.34 48.17 -134.34 31.83 -179.69 31.83 -225.03 31.83 -225.03 48.17 -241.51 48.17 -241.51 224.4 -225.16 224.4 -225.16 243 -179.69 243 -134.21 243 -134.21 224.4 -117.86 224.4 -117.86 48.17 -134.34 48.17"/>
    </clipPath>
    <linearGradient id="_未命名漸層_8" data-name="未命名漸層 8" x1="64.72" y1="29.66" x2="245.04" y2="282.57" gradientUnits="userSpaceOnUse">
      <stop offset="0" stop-color="#59e2af"/>
      <stop offset="1" stop-color="#05d386"/>
    </linearGradient>
    <linearGradient id="_未命名漸層_8-2" data-name="未命名漸層 8" x1="237.61" y1="266.46" x2="105.2" y2="89.52" xlink:href="#_未命名漸層_8"/>
    <linearGradient id="_未命名漸層_8-3" data-name="未命名漸層 8" x1="67.73" y1="45.66" x2="239.76" y2="262.84" xlink:href="#_未命名漸層_8"/>
  </defs>
  <g class="cls-12">
    <g class="cls-1">
      <g>
        <g>
          <g>
            <rect class="cls-6" x="-241.86" y="147.69" width="63.33" height="1.02" transform="translate(-17.86 -22.54) rotate(-6.41)"/>
            <rect class="cls-6" x="-242.44" y="159.44" width="64.49" height="1.02" transform="translate(-40.08 -42.11) rotate(-12.64)"/>
            <rect class="cls-6" x="-243.39" y="171.19" width="66.4" height="1.02" transform="translate(-65.8 -58.11) rotate(-18.61)"/>
            <rect class="cls-6" x="-244.68" y="182.94" width="68.97" height="1.02" transform="translate(-93.54 -69.98) rotate(-24.17)"/>
            <rect class="cls-6" x="-246.27" y="194.69" width="72.14" height="1.02" transform="translate(-122.29 -77.85) rotate(-29.27)"/>
            <rect class="cls-6" x="-248.12" y="206.44" width="75.84" height="1.02" transform="translate(-151.08 -82.04) rotate(-33.89)"/>
            <rect class="cls-6" x="-250.19" y="218.02" width="79.99" height="1.35" transform="translate(-179.62 -83.09) rotate(-38.08)"/>
            <rect class="cls-6" x="-252.46" y="229.94" width="84.53" height="1.02" transform="translate(-207.72 -81.45) rotate(-41.91)"/>
          </g>
          <g>
            <rect class="cls-6" x="-241.66" y="135.94" width="62.93" height="1.02"/>
            <rect class="cls-6" x="-210.71" y="93.04" width="1.02" height="63.33" transform="translate(-310.7 -98.08) rotate(-83.6)"/>
            <rect class="cls-6" x="-210.7" y="80.7" width="1.02" height="64.49" transform="translate(-274.43 -116.86) rotate(-77.36)"/>
            <rect class="cls-6" x="-210.71" y="68" width="1.02" height="66.4" transform="translate(-239.11 -130.29) rotate(-71.41)"/>
            <rect class="cls-6" x="-210.7" y="54.97" width="1.02" height="68.97" transform="translate(-205.81 -138.94) rotate(-65.85)"/>
            <rect class="cls-6" x="-210.7" y="41.63" width="1.02" height="72.14" transform="translate(-175.2 -143.65) rotate(-60.73)"/>
            <rect class="cls-6" x="-210.7" y="28.03" width="1.02" height="75.84" transform="translate(-147.61 -145.27) rotate(-56.07)"/>
            <rect class="cls-6" x="-210.7" y="14.2" width="1.02" height="79.99" transform="translate(-123.08 -144.62) rotate(-51.88)"/>
            <rect class="cls-6" x="-210.7" y=".18" width="1.02" height="84.53" transform="translate(-101.46 -142.38) rotate(-48.11)"/>
            <rect class="cls-6" x="-210.71" y="-14" width="1.02" height="89.4" transform="translate(-82.52 -139.08) rotate(-44.75)"/>
          </g>
        </g>
        <g>
          <g>
            <rect class="cls-6" x="-149.66" y="116.54" width="1.02" height="63.33" transform="translate(-279.77 -16.56) rotate(-83.59)"/>
            <rect class="cls-6" x="-149.66" y="127.7" width="1.02" height="64.49" transform="translate(-272.6 -20.57) rotate(-77.36)"/>
            <rect class="cls-6" x="-149.66" y="138.5" width="1.02" height="66.4" transform="translate(-264.26 -24.45) rotate(-71.39)"/>
            <rect class="cls-6" x="-149.66" y="148.97" width="1.02" height="68.97" transform="translate(-255.45 -27.73) rotate(-65.83)"/>
            <rect class="cls-6" x="-149.66" y="159.13" width="1.02" height="72.14" transform="translate(-246.49 -30.35) rotate(-60.73)"/>
            <rect class="cls-6" x="-149.66" y="169.03" width="1.02" height="75.84" transform="translate(-237.79 -32.25) rotate(-56.11)"/>
            <rect class="cls-6" x="-149.82" y="178.7" width="1.35" height="79.99" transform="translate(-229.31 -33.59) rotate(-51.92)"/>
            <rect class="cls-6" x="-149.66" y="188.19" width="1.02" height="84.53" transform="translate(-221 -34.48) rotate(-48.09)"/>
          </g>
          <g>
            <rect class="cls-6" x="-180.61" y="135.94" width="62.93" height="1.02"/>
            <rect class="cls-6" x="-180.81" y="124.19" width="63.33" height="1.02" transform="translate(-14.82 -15.84) rotate(-6.4)"/>
            <rect class="cls-6" x="-181.39" y="112.44" width="64.49" height="1.02" transform="translate(-28.32 -29.89) rotate(-12.64)"/>
            <rect class="cls-6" x="-182.35" y="100.69" width="66.4" height="1.02" transform="translate(-40.04 -42.26) rotate(-18.59)"/>
            <rect class="cls-6" x="-183.63" y="88.94" width="68.97" height="1.02" transform="translate(-49.66 -53.19) rotate(-24.15)"/>
            <rect class="cls-6" x="-185.22" y="77.19" width="72.14" height="1.02" transform="translate(-57.03 -63) rotate(-29.27)"/>
            <rect class="cls-6" x="-187.07" y="65.44" width="75.84" height="1.02" transform="translate(-62.2 -72.01) rotate(-33.93)"/>
            <rect class="cls-6" x="-189.14" y="53.69" width="79.99" height="1.02" transform="translate(-65.27 -80.51) rotate(-38.12)"/>
            <rect class="cls-6" x="-191.41" y="41.94" width="84.53" height="1.02" transform="translate(-66.45 -88.73) rotate(-41.89)"/>
            <rect class="cls-6" x="-193.85" y="30.19" width="89.4" height="1.02" transform="translate(-65.96 -96.84) rotate(-45.25)"/>
          </g>
        </g>
      </g>
    </g>
  </g>
  <g class="cls-12">
    <polygon class="cls-4" points="-130.11 246.46 -229.26 246.46 -229.26 228.93 -245.51 228.93 -245.51 44.57 -229.26 44.57 -229.26 28.6 -149.51 28.6 -149.51 29.92 -227.95 29.92 -227.95 45.88 -244.2 45.88 -244.2 227.61 -227.95 227.61 -227.95 245.15 -131.43 245.15 -131.43 227.61 -115.18 227.61 -115.18 45.88 -131.43 45.88 -131.43 29.92 -153.77 29.92 -153.77 28.6 -130.11 28.6 -130.11 44.57 -113.86 44.57 -113.86 228.93 -130.11 228.93 -130.11 246.46"/>
  </g>
  <g class="cls-12">
    <polygon class="cls-4" points="-123.55 37.86 -123.55 21.9 -203.4 21.9 -203.4 23.22 -124.86 23.22 -124.86 39.18 -108.61 39.18 -108.61 234.31 -124.86 234.31 -124.86 251.85 -234.51 251.85 -234.51 234.31 -250.76 234.31 -250.76 39.18 -234.51 39.18 -234.51 23.22 -203.4 23.22 -203.4 21.9 -235.83 21.9 -235.83 37.86 -252.08 37.86 -252.08 235.63 -235.83 235.63 -235.83 253.17 -123.55 253.17 -123.55 235.63 -107.3 235.63 -107.3 37.86 -123.55 37.86"/>
  </g>
  <g class="cls-12">
    <g>
      <rect class="cls-3" x="-244.41" y="238.49" width="6.03" height="6.03"/>
      <rect class="cls-3" x="-120.71" y="238.49" width="6.03" height="6.03"/>
    </g>
  </g>
  <g class="cls-12">
    <g>
      <rect class="cls-3" x="-244.41" y="28.95" width="6.03" height="6.03"/>
      <rect class="cls-3" x="-120.71" y="28.96" width="6.03" height="6.03"/>
    </g>
  </g>
  <g class="cls-12">
    <g>
      <path class="cls-3" d="M-197.91,6.6l4.16,4.52,1.43-5.98,3.26-.85-2.35,9.84,1.33,5.06-3.55-1.85-.63-2.4-6.91-7.48,3.26-.85Z"/>
      <path class="cls-3" d="M-180.73,3.77c2.29-.01,4.07.59,5.35,1.82,1.28,1.2,1.92,2.91,1.93,5.12.01,2.33-.64,4.11-1.94,5.37-1.31,1.24-3.21,1.88-5.69,1.89h-1.78s-2.22-2.67-2.22-2.67l-.06-11.51,4.41-.02ZM-182.09,14.99h1.25s.23,0,.23,0c1.4-.05,2.43-.37,3.09-1.01.67-.64.99-1.7.98-3.18,0-1.48-.33-2.54-.99-3.15-.64-.63-1.64-.9-3.01-.9h-1.59s.04,8.25.04,8.25Z"/>
      <path class="cls-3" d="M-159.9,7.22l-2.06,2.13c-.4-.33-.88-.56-1.41-.71-1.04-.28-2.05-.13-3.02.47-.94.58-1.59,1.44-1.89,2.57-.29,1.11-.16,2.15.37,3.15.55.98,1.35,1.61,2.39,1.89,1.07.28,2.07.13,3.01-.45.53-.34.94-.74,1.26-1.2l-3.03-.81,2.35-2.47,4.38,1.17c-.02.41-.09.92-.25,1.51-.33,1.23-.92,2.32-1.82,3.22-.86.91-1.9,1.53-3.11,1.89-1.19.34-2.38.35-3.6.03-1.21-.32-2.23-.94-3.09-1.83-.85-.91-1.46-1.95-1.79-3.17-.29-1.22-.29-2.47.05-3.72.34-1.27.95-2.31,1.8-3.23.9-.9,1.95-1.54,3.13-1.89,1.19-.36,2.4-.35,3.6-.03,1.04.28,1.95.76,2.72,1.47Z"/>
    </g>
  </g>
  <circle class="cls-5" cx="151.82" cy="151.82" r="151.82"/>
  <circle class="cls-9" cx="151.82" cy="151.82" r="142.77"/>
  <path class="cls-11" d="M203.91,206.34c-.03.69-.06,1.36-.09,2.04,0,.04,0,.08.02.11.08-1.49.13-2.56.07-2.15Z"/>
  <path class="cls-10" d="M151.82,296.09c-79.55,0-144.27-64.72-144.27-144.27S72.27,7.56,151.82,7.56s144.27,64.72,144.27,144.27-64.72,144.27-144.27,144.27ZM151.82,10.56C73.93,10.56,10.56,73.93,10.56,151.82s63.37,141.27,141.27,141.27,141.27-63.37,141.27-141.27S229.72,10.56,151.82,10.56Z"/>
  <circle class="cls-8" cx="151.82" cy="151.82" r="134.42"/>
  <path class="cls-7" d="M278.2,174.11c.08-.49-.65-1.22-1.06-1.87-.41-.65.41-.89-.65-1.62-3.92-2.16-7.37-4.27-11.53-5.93-10.81-1.84-21.52-.18-32.33,1.79-6.24-.5-15.55,1.71-20.96,1.06,1.42-5.06,2.27-11.03-.08-16,.2-3.31-6.48-8.84.57-8.45,0,0,1.14-.49,2.52-.97,1.59-.49,2.07.48,3.25-.41.14-.16,4.21.33,4.63-.49,2.85-1.05,8.36.28,10.32-1.3.49-.41.81-.24,2.76-.49,1.95-.24,2.44-.57,2.44-.57,2.68.15,6.56-.9,9.18-1.87,1.5-3.62,5.63-4.03,7.31-7.47-.16-2.14,3.55-5.68,1.54-7.47-4.12-.78-6.5-3.96-11.05-4.63-1.38-.33-.41-.33-1.71-.81-2.96-1.36-7.18-1.21-9.34-3.57,1.04-6.5,2.99-15.27,5.93-21.2,9.47-4.59,19.21-9.99,8.94-20.79-.47-4.43-5.02-8.45-8.69-10.8-2.71-2.66-6.72-7.2-10.8-7.23-.62-.34-4.31-.53-4.79.57-.6.52-1.08,1.46-2.27,1.38-2.71.61-4.36.15-7.55.24-14.08,2.01-26.86,9.78-41.42,9.42-1.68-.38-1.53-.71-3.17-1.38-1.58-1.31-2.44-4.91-5.12-4.47-3.56-.56-4.22,3.17-5.28,5.85-.49.57-.49.81-1.52,1.22-1.7,1.05-1.26,1.81-2.14,2.84-.1,2.6-.64,6.01-1.71,8.28,1.66,3.95-.9,5.41-3.49,1.95-2.41-1.6-3.83-3.65-6.74-4.87-1.22-.65,0,0-.81-.16-2.1-.74-4.02-3.16-6.25-4.22,1.6-3.28,6.37-.61,7.07-8.2.07-11.96-19.58-19.78-25.75-30.54h-.57c-.57,0-.73.49-.73.49-.46.28-.91,1.72-1.06,2.27-.24.49,0,0-.73-.24-.73-.24,0,0-.57.57-.04,5.83,1.76,12.73.16,18.52-1.13,3.82-5.53,8.52-6.82,12.18-12.48,12.01-25.32,32.98-45,33.63-5.83-1.11-13.7-.28-19.05,2.03.9.44,1.81,1.5,2.39,2.92.6.97,0,0-.22.75-.16.9-.47,1.31,0,1.87,1.19.92,3.77.79,6.13,1.05,2.24.15.52.15,1.27.6.73.36,3.25.82,4.19.75,2.09.56,3.14.79,4.63,1.94,3.73,2.12,7.9,2.23,11.14,5.38,4.09.33,7.94,1.17,11.88,2.17,6.55.45,15.58-2.85,18.46-8.9,1.25-.66,2.45-3.86,2.54-5.16,3.35-3.8,3.59-9.76,7.92-12.71,1.8-1.03,2.46-2.32,3.74-4.18.82-1.2,0,0,.45-.3,2.25-.47,2.89.71,5.53,1.34,1.49.35,7.64,2.01,4.93,3.74-9.5,10.77-23.04,18.21-32.74,28.55-1.86-.16-3.87,1.2-5.83,1.72-3.19.66-8.62-2.91-10.91.37,1.98,7.36-6.32,14.75,3.1,20.19,1.34.86,1.5,1.33.37,2.92-2.36,10-10.4,33.15-12.13,43.66-.37.67-.3,3.98,0,4.66-6.46,2.03-13.42,7.25-20.03,8.04-1.09.31-4.94,2.42-4.85,3.78-.22,2.02-1.04,4.09-2.36,5.78-.99,2.07-.63,4.44-1.37,6.66.61,13.04,29.18-3.27,31.61,1.43-.68,1.88.71,13,3.07,15.22-.46,4.03,1.15,6.88,3.89,9.8,2.02,2.18,3.23,4.82,7.07,4.28,2.89.25.9-3.18,2.64-4.59.39-.7,0,0-.23-.86-.23-.86,0,0-.39-.39-1.08-5.75,7.08-3.06,6.45-11.66-.79-.66-2.97-12.25-1.69-12.92-.57-5.26,5.12-6.69,9.08-8.58,4.46-3.07,11.41-2.47,15.86-4.85,12.5-1.72,13.63,7.74,13.19,23.29.11,0-.79,3.1-1.24,3.17-.17.37-3.28,1.11-3.54.62-6.16-2.75-13.53-4.03-19.16-8.02-1.23-.79-.61.83-.25,1.24,4.1,8.56,13.39,13.26,19.27,20.19,3.34,2.35,6.27,8.23,9.26,10.88,3.19,1,6.23,2.6,9.58.32,1.3-.65,0,0,.08-.24.88-3.48,5.36-4.62,3.9-8.53,1.03-4.31-4.83-38.94,2.44-38.82,4.72-.37,9.94-3.22,14.86-3.25,1.54-.24.49-.41,3-.73,2.52-.32,0,0,1.14-.24,5.15-3.38,11.65-2,17.46-2.68,3.86,7.44-.37,20.11-2.09,27.97-1.18,7.15.32,13.72-.02,20.96-.08,1.54.65.97.81,1.71-.13,1.08,1.41,5.73,1.3,6.74-1.23,9.78,13.65,5.79,16.97,3.27l.33-.91c1.92-3.72,2.83-9.66,4.55-13.56.94-1.34-.8-6.8.4-8.69.13-1.65.69-3.54-.49-4.95-.65-.89,0,0-.16-.65-1.02-2.92-1.42-5.99-2.11-9.02-.77-3.26-.78-6.35-.66-9.55.09-.52.17-1,.17-1.37-.04-.17-.05-.36-.08-.54-.02.43-.05.88-.08,1.36.02-.48.04-.98.06-1.47-.57-3.78,1.32-8.65,3.02-11.85.51-3.3,4.86-3.34,7.23-4.63,11.8-3.21,24.7-3.71,36.88-5.04,6.5-.5,12.2-2.62,16.65-7.8,1.51-3.24,2.32-6.82,5.52-9.01,1.14-.89.24-.41.33-.89ZM72.07,197.65c.16.96-1.13,2.73-1.13,2.73-.27.03-3.22,1.48-3.05,1.45-1.26-.42-1.52.44-3.54,1.13-1.77.48-3.38,0-3.38,0,1.94-2.15,1.57-1.85,4.82-4.02,0-.11,3.21-2.93,3.7-2.25,0,0,1.45-.16,2.41,0,.96.16,0,0,.16.96ZM192.24,83.8c-.4-.66,5.14-1.42,5.91-1.75.81-.35,3.92-1.65,4.38-1.75,3.8.4,9.2-2.16,12.8-3.61,2-1.59,2.98-3.54,5.14-3.17,1.42.33,1.31-.66,1.42.33-.26,5.28-.69,10.58-3.06,15.54-1.23,4.48-2.64,10.49-6.78,13.24-6.71,2.08-14.44,1.16-19.81-3.5,0,0,.98-13.68,0-15.32ZM109.36,173.7c-.32,1.29.64,11.4-3.05,12.85-4.69,1.94-4.2,2.55-6.91,1.77-1.29,0-2.34.96-2.94.32-.6-.64-1.08-.32-1.72-.8-1.71-.13.02-12.8,0-13.01,1.3-.62,4.19-2.2,5.14-2.26.8.17.64,1.22,2.25-.03,2.66-2.31,4.71-2.18,7.23-3.66,0,0,.32,3.54,0,4.82ZM109.85,147.71c-.69,6.55-10.44,7.51-12.86,9.43-.32-.96,0-5.32,0-6.84s-1.09-2.16-.14-3.45c1.86-3.51,2.6-5.74,6.31-7.23.64,1.22,3.39-1.09,4.12-1.13.8-.16,3.21-.96,2.57-.48-1.03,1-1.88,3-1.29,3.7,1.45,2.54,1.84,2.43,1.29,6ZM134.57,158.27c-.44.64-.28-.48-.76,2.09-.48,2.57-.48,3.86-.48,3.86.32,2.25,1.29,14.29.32,14.94-12.44,3.03-9.55-.69-10.45-14.14,1.26-.85,5.89-2.86,7.07-3.54.07-1.14-.57-3.74.48-4.82.8-.96.64.64.8-.96.16-1.61,1.13-.32.16-1.61-.96-1.29-1.77-.7-2.09-1.72l-.32-1.02c-2.05.27-6.36-.59-7.56-.48,0,0-1.77-5.3-1.45-6.26.32-.96-1.04-.96-.04-2.25l1-1.29s.32-1.61,0-2.41-1.31-.96-1.38-1.61c-.07-.64.25.32-.07-.64-.32-.96-2.73-.32-.32-.96,2.41-.64.48-.8,3.22-1.13s.32.16,2.73-.32c1.91-.54,7.1-1.98,7.72-.32.48,1.29-.8-.16,0,2.09.8,2.25-.42,4.5.11,5.14.53.64-.35.8.17,1.77.52.96-.99,1.22,0,2.7,1,1.48,1,.29,1,2.33-.19,3.39.32,7.97.12,10.56ZM166.12,156.02c-.71,3.2-1.16,5.48-1.45,7.4,0,0-.65.8-.72,2.41-.08,1.61,1.05-.96-.08,1.61-2.53,5.63-2.77,7.77-5.61,12.86-.18.48,1.59-.48-.18.48-2.61,1.23-3.15,1.72-5.23,1.47-1.5-1.77-4.71-1.63-4.42-5.99-2.4-1.29-.95-19.02-1.46-20.88-.82-.4-.91-1.46-.63-1.93,2.2.19,4.48,2.69,6.75,2.57,4.14.68,8.15.21,10.77-1.61,1.45-.16.64-1.93,1.45-.16.8,1.77,1.45-.96.8,1.77ZM169.81,113.78c-5.04,6.52-8.49,18.25-16.52,17.62-1-1.46-2.21-.99-3.61-1.64-2.41-.37-1.3-1.62-1.64-3.39-3.2-5-8.08-11.88-14.44-12.8-7.78-.56-22.03,6.29-30.53,6.89.43-1.03,3.98-4,5.69-4.49,1.31-.55,1.09.44,2.08-.77,2.44-3.28,4.34-3.88,8.21-5.03,5.43-1.96,11.24-6.99,17.18-6.57,7.79-.75,21.67-5.84,20.6-15.87.87-.29,3.51,4.06,4.68,3.94,4.27,1.94,10.03-.62,13.46-2.52,13.54-6.68-1.82,18.72-5.14,24.62ZM193.45,166.47c-.32.8-1.61.96-1.21,1.77.4.8.89,0,.4.8-.48.8-1.13,2.73-1.13,2.73-.8.48-3.22.8-3.22.8-1.93,1.29.32.64-1.93,1.29-2.25.64-1.61-1.29-3.05,0-1.2,1.63-2.85,1.71-3.7,2.09-.35-6.44,3.07-17.9,2.25-24.6.64-1.13-.48-.96,1.45-1.45,1.64-.19,3.86-1.38,4.5-1.45,0,0,.32.48,1.93,0,1.61-.48.8-1.13,1.61-.48,1.95,2.06.34,4.17.86,7.07-.16,2.04-.07,1.94.59,3.86.48,1.61-.64,2.14,0,2.92.64.78.64-1.31.64.78s.32,3.05,0,3.86ZM208.47,215.53c-.14,2.23-.29,4.42-.29,4.15-.32-1.13.04-2.78.29-4.15ZM206.14,120.24c-10.07,2.66-21.21,5.19-30.97,7.88,8.9-6.51,10.12-10.88,13.79-18.37.55-1.3,1.42,0,1.42,0,6.28,4.03,15.46,2.31,18.93,9.73,0,0-.66.22-3.17.77Z"/>
  <g>
    <path class="cls-11" d="M31.76,113.24h24.1l15.69,30.97,14.76-30.97h24.41l-28.9,51.4v27.87h-21.16v-27.87l-28.9-51.4Z"/>
    <path class="cls-11" d="M118.13,192.52v-79.27h41.29c10.49,0,18.29,2.32,23.38,6.97,5.13,4.65,7.69,12.23,7.69,22.76v18.43c0,11.08-2.32,19.04-6.97,23.9-4.65,4.82-12.13,7.23-22.45,7.23h-42.94ZM139.29,174.14h18.06c3.44,0,6.19-.98,8.26-2.94s3.1-5.75,3.1-11.35v-15.64c0-4.78-.76-8.07-2.27-9.86-1.48-1.82-4.4-2.74-8.77-2.74h-18.37v42.53Z"/>
    <path class="cls-11" d="M234.55,162.17v-14.66h36.33v14.66c0,12.7-2.22,21.08-6.66,25.14-4.44,4.03-13.82,6.04-28.13,6.04-13.45,0-23.19-1.87-29.21-5.63-5.99-3.78-8.98-11.49-8.98-23.12v-23.12c0-11.18,2.94-18.82,8.83-22.92,5.92-4.09,15.9-6.14,29.93-6.14s23.38,1.77,27.71,5.32c4.34,3.54,6.5,10.31,6.5,20.28h-21.47c0-3.41-1.26-5.64-3.77-6.71-2.51-1.1-5.56-1.65-9.14-1.65-6.88,0-11.41.91-13.57,2.74-2.17,1.82-3.25,6.38-3.25,13.68v14.45c0,6.26,1.05,10.42,3.15,12.49s6.4,3.1,12.9,3.1c5.3,0,8.89-.89,10.79-2.68,1.93-1.79,2.89-5.54,2.89-11.25h-14.86Z"/>
  </g>
  <path class="cls-10" d="M151.82,287.24c-74.67,0-135.42-60.75-135.42-135.42S77.16,16.41,151.82,16.41s135.42,60.75,135.42,135.42-60.75,135.42-135.42,135.42ZM151.82,18.41c-73.57,0-133.42,59.85-133.42,133.42s59.85,133.42,133.42,133.42,133.42-59.85,133.42-133.42S225.39,18.41,151.82,18.41Z"/>
</svg>
