<?xml version="1.0" encoding="UTF-8"?>
<svg id="Layer_1" xmlns="http://www.w3.org/2000/svg" xmlns:xlink="http://www.w3.org/1999/xlink" version="1.1" viewBox="0 0 32 32">
  <!-- Generator: Adobe Illustrator 30.1.0, SVG Export Plug-In . SVG Version: 2.1.1 Build 136)  -->
  <defs>
    <style>
      .st0 {
        fill: none;
      }

      .st1 {
        fill: #b48f43;
      }

      .st2 {
        fill: url(#_新增漸層色票_1);
      }

      .st3 {
        clip-path: url(#clippath-1);
      }

      .st4 {
        fill: url(#_新增漸層色票_19);
      }

      .st5 {
        fill: url(#_新增漸層色票_18);
      }

      .st6 {
        fill: url(#_新增漸層色票_17);
      }

      .st7 {
        fill: url(#_新增漸層色票_14);
      }

      .st8 {
        fill: url(#_新增漸層色票_12);
      }

      .st9 {
        fill: url(#_新增漸層色票_11);
      }

      .st10 {
        fill: url(#_新增漸層色票_16);
      }

      .st11 {
        fill: url(#_新增漸層色票_13);
      }

      .st12 {
        fill: url(#_新增漸層色票_15);
      }

      .st13 {
        fill: #231916;
      }

      .st14 {
        fill: url(#_新增漸層色票_127);
      }

      .st15 {
        fill: url(#_新增漸層色票_128);
      }

      .st16 {
        fill: url(#_新增漸層色票_123);
      }

      .st17 {
        fill: url(#_新增漸層色票_126);
      }

      .st18 {
        fill: url(#_新增漸層色票_121);
      }

      .st19 {
        fill: url(#_新增漸層色票_124);
      }

      .st20 {
        fill: url(#_新增漸層色票_129);
      }

      .st21 {
        fill: url(#_新增漸層色票_125);
      }

      .st22 {
        fill: url(#_新增漸層色票_122);
      }

      .st23 {
        fill: url(#_新增漸層色票_120);
      }

      .st24 {
        fill: url(#_新增漸層色票_113);
      }

      .st25 {
        fill: url(#_新增漸層色票_114);
      }

      .st26 {
        fill: url(#_新增漸層色票_111);
      }

      .st27 {
        fill: url(#_新增漸層色票_110);
      }

      .st28 {
        fill: url(#_新增漸層色票_119);
      }

      .st29 {
        fill: url(#_新增漸層色票_117);
      }

      .st30 {
        fill: url(#_新增漸層色票_116);
      }

      .st31 {
        fill: url(#_新增漸層色票_118);
      }

      .st32 {
        fill: url(#_新增漸層色票_115);
      }

      .st33 {
        fill: url(#_新增漸層色票_112);
      }

      .st34 {
        fill: url(#_新增漸層色票_155);
      }

      .st35 {
        fill: url(#_新增漸層色票_159);
      }

      .st36 {
        fill: url(#_新增漸層色票_156);
      }

      .st37 {
        fill: url(#_新增漸層色票_153);
      }

      .st38 {
        fill: url(#_新增漸層色票_158);
      }

      .st39 {
        fill: url(#_新增漸層色票_152);
      }

      .st40 {
        fill: url(#_新增漸層色票_157);
      }

      .st41 {
        fill: url(#_新增漸層色票_154);
      }

      .st42 {
        fill: url(#_新增漸層色票_151);
      }

      .st43 {
        fill: url(#_新增漸層色票_150);
      }

      .st44 {
        fill: url(#_新增漸層色票_166);
      }

      .st45 {
        fill: url(#_新增漸層色票_165);
      }

      .st46 {
        fill: url(#_新增漸層色票_161);
      }

      .st47 {
        fill: url(#_新增漸層色票_163);
      }

      .st48 {
        fill: url(#_新增漸層色票_168);
      }

      .st49 {
        fill: url(#_新增漸層色票_169);
      }

      .st50 {
        fill: url(#_新增漸層色票_167);
      }

      .st51 {
        fill: url(#_新增漸層色票_164);
      }

      .st52 {
        fill: url(#_新增漸層色票_162);
      }

      .st53 {
        fill: url(#_新增漸層色票_160);
      }

      .st54 {
        fill: url(#_新增漸層色票_179);
      }

      .st55 {
        fill: url(#_新增漸層色票_178);
      }

      .st56 {
        fill: url(#_新增漸層色票_130);
      }

      .st57 {
        fill: url(#_新增漸層色票_139);
      }

      .st58 {
        fill: url(#_新增漸層色票_136);
      }

      .st59 {
        fill: url(#_新增漸層色票_135);
      }

      .st60 {
        fill: url(#_新增漸層色票_138);
      }

      .st61 {
        fill: url(#_新增漸層色票_137);
      }

      .st62 {
        fill: url(#_新增漸層色票_131);
      }

      .st63 {
        fill: url(#_新增漸層色票_134);
      }

      .st64 {
        fill: url(#_新增漸層色票_133);
      }

      .st65 {
        fill: url(#_新增漸層色票_132);
      }

      .st66 {
        fill: url(#_新增漸層色票_149);
      }

      .st67 {
        fill: url(#_新增漸層色票_140);
      }

      .st68 {
        fill: url(#_新增漸層色票_144);
      }

      .st69 {
        fill: url(#_新增漸層色票_143);
      }

      .st70 {
        fill: url(#_新增漸層色票_142);
      }

      .st71 {
        fill: url(#_新增漸層色票_148);
      }

      .st72 {
        fill: url(#_新增漸層色票_147);
      }

      .st73 {
        fill: url(#_新增漸層色票_146);
      }

      .st74 {
        fill: url(#_新增漸層色票_145);
      }

      .st75 {
        fill: url(#_新增漸層色票_141);
      }

      .st76 {
        fill: url(#_新增漸層色票_171);
      }

      .st77 {
        fill: url(#_新增漸層色票_170);
      }

      .st78 {
        fill: url(#_新增漸層色票_173);
      }

      .st79 {
        fill: url(#_新增漸層色票_172);
      }

      .st80 {
        fill: url(#_新增漸層色票_175);
      }

      .st81 {
        fill: url(#_新增漸層色票_174);
      }

      .st82 {
        fill: url(#_新增漸層色票_177);
      }

      .st83 {
        fill: url(#_新增漸層色票_176);
      }

      .st84 {
        fill: #3db592;
      }

      .st85 {
        clip-path: url(#clippath);
      }
    </style>
    <linearGradient id="_新增漸層色票_1" data-name="新增漸層色票 1" x1="29.42" y1=".68" x2="5.28" y2="28.24" gradientUnits="userSpaceOnUse">
      <stop offset="0" stop-color="#e4c480"/>
      <stop offset="1" stop-color="#b48f43"/>
    </linearGradient>
    <clipPath id="clippath">
      <circle class="st0" cx="16" cy="16" r="14.96"/>
    </clipPath>
    <linearGradient id="_新增漸層色票_11" data-name="新增漸層色票 1" x1="-463.65" y1="389.81" x2="-463.43" y2="389.81" gradientTransform="translate(-439.12 419.06) rotate(-180)" xlink:href="#_新增漸層色票_1"/>
    <linearGradient id="_新增漸層色票_12" data-name="新增漸層色票 1" x1="-457.92" y1="394.61" x2="-447.75" y2="394.61" gradientTransform="translate(-439.12 419.06) rotate(-180)" xlink:href="#_新增漸層色票_1"/>
    <linearGradient id="_新增漸層色票_13" data-name="新增漸層色票 1" x1="-462.28" y1="397.87" x2="-457.81" y2="397.87" gradientTransform="translate(-439.12 419.06) rotate(-180)" xlink:href="#_新增漸層色票_1"/>
    <linearGradient id="_新增漸層色票_14" data-name="新增漸層色票 1" x1="-471.01" y1="405.19" x2="-453.99" y2="405.19" gradientTransform="translate(-439.12 419.06) rotate(-180)" xlink:href="#_新增漸層色票_1"/>
    <linearGradient id="_新增漸層色票_15" data-name="新增漸層色票 1" x1="-447.77" y1="408.44" x2="-439.42" y2="408.44" gradientTransform="translate(-439.12 419.06) rotate(-180)" xlink:href="#_新增漸層色票_1"/>
    <linearGradient id="_新增漸層色票_16" data-name="新增漸層色票 1" x1="-467.19" y1="391.24" x2="-463.42" y2="391.24" gradientTransform="translate(-439.12 419.06) rotate(-180)" xlink:href="#_新增漸層色票_1"/>
    <linearGradient id="_新增漸層色票_17" data-name="新增漸層色票 1" x1="-470.66" y1="390.91" x2="-465.71" y2="390.91" gradientTransform="translate(-439.12 419.06) rotate(-180)" xlink:href="#_新增漸層色票_1"/>
    <linearGradient id="_新增漸層色票_18" data-name="新增漸層色票 1" x1="-448.02" y1="413.83" x2="-439.83" y2="413.83" gradientTransform="translate(-439.12 419.06) rotate(-180)" xlink:href="#_新增漸層色票_1"/>
    <linearGradient id="_新增漸層色票_19" data-name="新增漸層色票 1" x1="-463.47" y1="390.1" x2="-458.47" y2="390.1" gradientTransform="translate(-439.12 419.06) rotate(-180)" xlink:href="#_新增漸層色票_1"/>
    <linearGradient id="_新增漸層色票_110" data-name="新增漸層色票 1" x1="-465.73" y1="390.26" x2="-464.15" y2="390.26" gradientTransform="translate(-439.12 419.06) rotate(-180)" xlink:href="#_新增漸層色票_1"/>
    <linearGradient id="_新增漸層色票_111" data-name="新增漸層色票 1" x1="-468.58" y1="390.94" x2="-465.71" y2="390.94" gradientTransform="translate(-439.12 419.06) rotate(-180)" xlink:href="#_新增漸層色票_1"/>
    <linearGradient id="_新增漸層色票_112" data-name="新增漸層色票 1" x1="-447.53" y1="397.68" x2="-440.37" y2="397.68" gradientTransform="translate(-439.12 419.06) rotate(-180)" xlink:href="#_新增漸層色票_1"/>
    <linearGradient id="_新增漸層色票_113" data-name="新增漸層色票 1" x1="-457.17" y1="409" x2="-447.3" y2="409" gradientTransform="translate(-439.12 419.06) rotate(-180)" xlink:href="#_新增漸層色票_1"/>
    <linearGradient id="_新增漸層色票_114" data-name="新增漸層色票 1" x1="-462.22" y1="396.37" x2="-457.78" y2="396.37" gradientTransform="translate(-584.66 -22.3) rotate(-135)" xlink:href="#_新增漸層色票_1"/>
    <linearGradient id="_新增漸層色票_115" data-name="新增漸層色票 1" x1="-463.55" y1="390.45" x2="-456.57" y2="390.45" gradientTransform="translate(-439.12 419.06) rotate(-180)" xlink:href="#_新增漸層色票_1"/>
    <linearGradient id="_新增漸層色票_116" data-name="新增漸層色票 1" x1="-470.63" y1="401.18" x2="-463.25" y2="401.18" gradientTransform="translate(-439.12 419.06) rotate(-180)" xlink:href="#_新增漸層色票_1"/>
    <linearGradient id="_新增漸層色票_117" data-name="新增漸層色票 1" x1="-448.02" y1="410.01" x2="-440.16" y2="410.01" gradientTransform="translate(-439.12 419.06) rotate(-180)" xlink:href="#_新增漸層色票_1"/>
    <linearGradient id="_新增漸層色票_118" data-name="新增漸層色票 1" x1="-454.04" y1="404.91" x2="-449.58" y2="404.91" gradientTransform="translate(-439.12 419.06) rotate(-180)" xlink:href="#_新增漸層色票_1"/>
    <linearGradient id="_新增漸層色票_119" data-name="新增漸層色票 1" x1="-467.83" y1="391.44" x2="-463.54" y2="391.44" gradientTransform="translate(-439.12 419.06) rotate(-180)" xlink:href="#_新增漸層色票_1"/>
    <linearGradient id="_新增漸層色票_120" data-name="新增漸層色票 1" x1="-463.59" y1="394.51" x2="-450.42" y2="394.51" gradientTransform="translate(-439.12 419.06) rotate(-180)" xlink:href="#_新增漸層色票_1"/>
    <linearGradient id="_新增漸層色票_121" data-name="新增漸層色票 1" x1="-447.99" y1="393.21" x2="-439.96" y2="393.21" gradientTransform="translate(-439.12 419.06) rotate(-180)" xlink:href="#_新增漸層色票_1"/>
    <linearGradient id="_新增漸層色票_122" data-name="新增漸層色票 1" x1="-462.34" y1="396.84" x2="-457.79" y2="396.84" gradientTransform="translate(-584.97 -22.48) rotate(-135)" xlink:href="#_新增漸層色票_1"/>
    <linearGradient id="_新增漸層色票_123" data-name="新增漸層色票 1" x1="-470.59" y1="404.21" x2="-465.6" y2="404.21" gradientTransform="translate(-439.12 419.06) rotate(-180)" xlink:href="#_新增漸層色票_1"/>
    <linearGradient id="_新增漸層色票_124" data-name="新增漸層色票 1" x1="-470.33" y1="393.64" x2="-464.82" y2="393.64" gradientTransform="translate(-439.12 419.06) rotate(-180)" xlink:href="#_新增漸層色票_1"/>
    <linearGradient id="_新增漸層色票_125" data-name="新增漸層色票 1" x1="-462.47" y1="397.92" x2="-458.35" y2="397.92" gradientTransform="translate(-439.12 419.06) rotate(-180)" xlink:href="#_新增漸層色票_1"/>
    <linearGradient id="_新增漸層色票_126" data-name="新增漸層色票 1" x1="-454.05" y1="403.76" x2="-439.22" y2="403.76" gradientTransform="translate(-439.12 419.06) rotate(-180)" xlink:href="#_新增漸層色票_1"/>
    <linearGradient id="_新增漸層色票_127" data-name="新增漸層色票 1" x1="-450.02" y1="391.62" x2="-447.13" y2="391.62" gradientTransform="translate(-439.12 419.06) rotate(-180)" xlink:href="#_新增漸層色票_1"/>
    <linearGradient id="_新增漸層色票_128" data-name="新增漸層色票 1" x1="-450.44" y1="409.02" x2="-445.85" y2="409.02" gradientTransform="translate(457.18 -398.97)" xlink:href="#_新增漸層色票_1"/>
    <linearGradient id="_新增漸層色票_129" data-name="新增漸層色票 1" x1="-450.4" y1="412.03" x2="-449.65" y2="412.03" gradientTransform="translate(460.93 -405)" xlink:href="#_新增漸層色票_1"/>
    <linearGradient id="_新增漸層色票_130" data-name="新增漸層色票 1" x1="-449.29" y1="395.5" x2="-449.18" y2="395.5" gradientTransform="translate(459.35 -371.93)" xlink:href="#_新增漸層色票_1"/>
    <linearGradient id="_新增漸層色票_131" data-name="新增漸層色票 1" x1="-455.12" y1="399.43" x2="-454.92" y2="399.43" gradientTransform="translate(-439.12 419.06) rotate(-180)" xlink:href="#_新增漸層色票_1"/>
    <linearGradient id="_新增漸層色票_132" data-name="新增漸層色票 1" x1="-453.16" y1="405.16" x2="-452.94" y2="405.16" gradientTransform="translate(-439.12 419.06) rotate(-180)" xlink:href="#_新增漸層色票_1"/>
    <linearGradient id="_新增漸層色票_133" data-name="新增漸層色票 1" x1=".74" y1="16" x2="31.26" y2="16" xlink:href="#_新增漸層色票_1"/>
    <linearGradient id="_新增漸層色票_134" data-name="新增漸層色票 1" x1="8.29" y1="16.06" x2="23.8" y2="16.06" xlink:href="#_新增漸層色票_1"/>
    <linearGradient id="_新增漸層色票_135" data-name="新增漸層色票 1" x1="23.68" y1="16.06" x2="6.02" y2="16.06" xlink:href="#_新增漸層色票_1"/>
    <clipPath id="clippath-1">
      <polygon class="st0" points="20.91 6.5 20.91 4.75 16.05 4.75 11.19 4.75 11.19 6.5 9.42 6.5 9.42 25.38 11.17 25.38 11.17 27.37 16.05 27.37 20.92 27.37 20.92 25.38 22.67 25.38 22.67 6.5 20.91 6.5"/>
    </clipPath>
    <linearGradient id="_新增漸層色票_136" data-name="新增漸層色票 1" x1="14.25" y1="17.3" x2="7.04" y2="16.86" gradientTransform="translate(2 -1.32) rotate(6.41)" xlink:href="#_新增漸層色票_1"/>
    <linearGradient id="_新增漸層色票_137" data-name="新增漸層色票 1" x1="14.17" y1="18.56" x2="6.96" y2="18.11" gradientTransform="translate(4.35 -2.35) rotate(12.64)" xlink:href="#_新增漸層色票_1"/>
    <linearGradient id="_新增漸層色票_138" data-name="新增漸層色票 1" x1="14.1" y1="19.81" x2="6.88" y2="19.37" gradientTransform="translate(6.97 -3.05) rotate(18.61)" xlink:href="#_新增漸層色票_1"/>
    <linearGradient id="_新增漸層色票_139" data-name="新增漸層色票 1" x1="14.02" y1="21.07" x2="6.81" y2="20.62" gradientTransform="translate(9.71 -3.39) rotate(24.17)" xlink:href="#_新增漸層色票_1"/>
    <linearGradient id="_新增漸層色票_140" data-name="新增漸層色票 1" x1="13.94" y1="22.32" x2="6.73" y2="21.88" gradientTransform="translate(12.51 -3.41) rotate(29.27)" xlink:href="#_新增漸層色票_1"/>
    <linearGradient id="_新增漸層色票_141" data-name="新增漸層色票 1" x1="13.86" y1="23.58" x2="6.65" y2="23.13" gradientTransform="translate(15.28 -3.13) rotate(33.89)" xlink:href="#_新增漸層色票_1"/>
    <linearGradient id="_新增漸層色票_142" data-name="新增漸層色票 1" x1="13.79" y1="24.83" x2="6.58" y2="24.39" gradientTransform="translate(18 -2.61) rotate(38.08)" xlink:href="#_新增漸層色票_1"/>
    <linearGradient id="_新增漸層色票_143" data-name="新增漸層色票 1" x1="13.71" y1="26.08" x2="6.5" y2="25.64" gradientTransform="translate(20.66 -1.88) rotate(41.91)" xlink:href="#_新增漸層色票_1"/>
    <linearGradient id="_新增漸層色票_144" data-name="新增漸層色票 1" x1="14.33" y1="16.05" x2="7.12" y2="15.61" xlink:href="#_新增漸層色票_1"/>
    <linearGradient id="_新增漸層色票_145" data-name="新增漸層色票 1" x1="14.41" y1="14.8" x2="7.19" y2="14.35" gradientTransform="translate(25.96 .36) rotate(83.6)" xlink:href="#_新增漸層色票_1"/>
    <linearGradient id="_新增漸層色票_146" data-name="新增漸層色票 1" x1="14.48" y1="13.54" x2="7.27" y2="13.1" gradientTransform="translate(23.09 -1.97) rotate(77.36)" xlink:href="#_新增漸層色票_1"/>
    <linearGradient id="_新增漸層色票_147" data-name="新增漸層色票 1" x1="14.56" y1="12.29" x2="7.35" y2="11.84" gradientTransform="translate(20.25 -3.82) rotate(71.41)" xlink:href="#_新增漸層色票_1"/>
    <linearGradient id="_新增漸層色票_148" data-name="新增漸層色票 1" x1="14.64" y1="11.03" x2="7.43" y2="10.59" gradientTransform="translate(17.51 -5.21) rotate(65.85)" xlink:href="#_新增漸層色票_1"/>
    <linearGradient id="_新增漸層色票_149" data-name="新增漸層色票 1" x1="14.71" y1="9.78" x2="7.5" y2="9.34" gradientTransform="translate(14.96 -6.21) rotate(60.73)" xlink:href="#_新增漸層色票_1"/>
    <linearGradient id="_新增漸層色票_150" data-name="新增漸層色票 1" x1="14.79" y1="8.53" x2="7.58" y2="8.08" gradientTransform="translate(12.62 -6.89) rotate(56.07)" xlink:href="#_新增漸層色票_1"/>
    <linearGradient id="_新增漸層色票_151" data-name="新增漸層色票 1" x1="14.87" y1="7.27" x2="7.66" y2="6.83" gradientTransform="translate(10.51 -7.32) rotate(51.88)" xlink:href="#_新增漸層色票_1"/>
    <linearGradient id="_新增漸層色票_152" data-name="新增漸層色票 1" x1="14.95" y1="6.02" x2="7.73" y2="5.57" gradientTransform="translate(8.63 -7.56) rotate(48.11)" xlink:href="#_新增漸層色票_1"/>
    <linearGradient id="_新增漸層色票_153" data-name="新增漸層色票 1" x1="9.37" y1="4.62" x2="16.19" y2="4.62" gradientTransform="translate(6.96 -7.66) rotate(44.75)" xlink:href="#_新增漸層色票_1"/>
    <linearGradient id="_新增漸層色票_154" data-name="新增漸層色票 1" x1="24.23" y1="16.9" x2="13.94" y2="17.56" gradientTransform="translate(34.27 -3.91) rotate(83.59)" xlink:href="#_新增漸層色票_1"/>
    <linearGradient id="_新增漸層色票_155" data-name="新增漸層色票 1" x1="24.31" y1="18.16" x2="14.02" y2="18.81" gradientTransform="translate(33.12 -4.42) rotate(77.36)" xlink:href="#_新增漸層色票_1"/>
    <linearGradient id="_新增漸層色票_156" data-name="新增漸層色票 1" x1="24.39" y1="19.41" x2="14.1" y2="20.06" gradientTransform="translate(31.85 -4.87) rotate(71.39)" xlink:href="#_新增漸層色票_1"/>
    <linearGradient id="_新增漸層色票_157" data-name="新增漸層色票 1" x1="24.47" y1="20.66" x2="14.18" y2="21.32" gradientTransform="translate(30.56 -5.23) rotate(65.83)" xlink:href="#_新增漸層色票_1"/>
    <linearGradient id="_新增漸層色票_158" data-name="新增漸層色票 1" x1="24.55" y1="21.92" x2="14.25" y2="22.57" xlink:href="#_新增漸層色票_1"/>
    <linearGradient id="_新增漸層色票_159" data-name="新增漸層色票 1" x1="24.63" y1="23.17" x2="14.33" y2="23.82" xlink:href="#_新增漸層色票_1"/>
    <linearGradient id="_新增漸層色票_160" data-name="新增漸層色票 1" x1="24.71" y1="24.42" x2="14.41" y2="25.08" xlink:href="#_新增漸層色票_1"/>
    <linearGradient id="_新增漸層色票_161" data-name="新增漸層色票 1" x1="24.79" y1="25.68" x2="14.49" y2="26.33" xlink:href="#_新增漸層色票_1"/>
    <linearGradient id="_新增漸層色票_162" data-name="新增漸層色票 1" x1="24.15" y1="15.65" x2="13.86" y2="16.3" xlink:href="#_新增漸層色票_1"/>
    <linearGradient id="_新增漸層色票_163" data-name="新增漸層色票 1" x1="24.07" y1="14.39" x2="13.78" y2="15.05" gradientTransform="translate(1.76 -2.06) rotate(6.4)" xlink:href="#_新增漸層色票_1"/>
    <linearGradient id="_新增漸層色票_164" data-name="新增漸層色票 1" x1="23.99" y1="13.14" x2="13.7" y2="13.79" gradientTransform="translate(3.41 -3.9) rotate(12.64)" xlink:href="#_新增漸層色票_1"/>
    <linearGradient id="_新增漸層色票_165" data-name="新增漸層色票 1" x1="23.91" y1="11.89" x2="13.62" y2="12.54" gradientTransform="translate(4.89 -5.52) rotate(18.59)" xlink:href="#_新增漸層色票_1"/>
    <linearGradient id="_新增漸層色票_166" data-name="新增漸層色票 1" x1="23.83" y1="10.63" x2="13.54" y2="11.29" gradientTransform="translate(6.16 -6.95) rotate(24.15)" xlink:href="#_新增漸層色票_1"/>
    <linearGradient id="_新增漸層色票_167" data-name="新增漸層色票 1" x1="23.75" y1="9.38" x2="13.46" y2="10.03" gradientTransform="translate(7.19 -8.21) rotate(29.27)" xlink:href="#_新增漸層色票_1"/>
    <linearGradient id="_新增漸層色票_168" data-name="新增漸層色票 1" x1="23.67" y1="8.13" x2="13.38" y2="8.78" gradientTransform="translate(7.98 -9.35) rotate(33.93)" xlink:href="#_新增漸層色票_1"/>
    <linearGradient id="_新增漸層色票_169" data-name="新增漸層色票 1" x1="23.59" y1="6.87" x2="13.3" y2="7.52" gradientTransform="translate(8.53 -10.4) rotate(38.12)" xlink:href="#_新增漸層色票_1"/>
    <linearGradient id="_新增漸層色票_170" data-name="新增漸層色票 1" x1="23.51" y1="5.62" x2="13.22" y2="6.27" gradientTransform="translate(8.86 -11.39) rotate(41.89)" xlink:href="#_新增漸層色票_1"/>
    <linearGradient id="_新增漸層色票_171" data-name="新增漸層色票 1" x1="15.91" y1="4.62" x2="22.73" y2="4.62" gradientTransform="translate(9 -12.35) rotate(45.25)" xlink:href="#_新增漸層色票_1"/>
    <linearGradient id="_新增漸層色票_172" data-name="新增漸層色票 1" x1="15.41" y1="28.05" x2="16.29" y2="11.57" xlink:href="#_新增漸層色票_1"/>
    <linearGradient id="_新增漸層色票_173" data-name="新增漸層色票 1" x1="15.06" y1="5.5" x2="19.85" y2="49.27" xlink:href="#_新增漸層色票_1"/>
    <linearGradient id="_新增漸層色票_174" data-name="新增漸層色票 1" x1="15.91" y1="5.41" x2="20.7" y2="49.17" xlink:href="#_新增漸層色票_1"/>
    <linearGradient id="_新增漸層色票_175" data-name="新增漸層色票 1" x1="14.14" y1="5.6" x2="18.93" y2="49.37" xlink:href="#_新增漸層色票_1"/>
    <linearGradient id="_新增漸層色票_176" data-name="新增漸層色票 1" x1="15.06" y1="5.5" x2="19.85" y2="49.27" xlink:href="#_新增漸層色票_1"/>
    <linearGradient id="_新增漸層色票_177" data-name="新增漸層色票 1" x1="15.91" y1="5.41" x2="20.7" y2="49.17" xlink:href="#_新增漸層色票_1"/>
    <linearGradient id="_新增漸層色票_178" data-name="新增漸層色票 1" x1="14.14" y1="5.6" x2="18.93" y2="49.37" xlink:href="#_新增漸層色票_1"/>
    <linearGradient id="_新增漸層色票_179" data-name="新增漸層色票 1" x1="15.41" y1="28.05" x2="16.29" y2="11.57" xlink:href="#_新增漸層色票_1"/>
  </defs>
  <path class="st2" d="M16,0C7.16,0,0,7.16,0,16s7.16,16,16,16,16-7.16,16-16S24.84,0,16,0Z"/>
  <path class="st13" d="M16.04,31.2C7.64,31.2.83,24.39.83,15.99S7.64.78,16.04.78s15.21,6.81,15.21,15.21-6.81,15.21-15.21,15.21Z"/>
  <g class="st85">
    <g>
      <g>
        <rect class="st9" x="24.32" y="27.25" width=".22" height="4"/>
        <polygon class="st8" points="11.57 28.64 11.57 25.48 18.8 18.24 18.65 18.09 12.45 24.28 12.45 23.6 18.48 17.57 18.4 17.49 12.45 23.45 12.45 22.26 15.52 19.19 15.37 19.03 12.23 22.17 12.23 23.03 11.87 23.39 11.87 21.42 14.92 18.37 14.84 18.3 10.06 23.08 10.17 23.12 11.76 21.53 11.76 22.32 10.14 23.95 10.21 24.03 11.76 22.48 11.76 23.5 11.35 23.92 9.3 23.92 9.3 24.14 11.44 24.14 12.23 23.34 12.23 24.5 11.86 24.88 9.46 24.88 9.46 24.99 11.74 24.99 11.36 25.38 9.49 25.38 9.49 25.49 11.35 25.49 11.35 28.55 8.63 31.26 8.79 31.42 10.59 29.62 10.59 31.32 10.7 31.32 10.7 29.51 11.57 28.64"/>
        <polygon class="st11" points="18.69 19.1 23.16 23.57 23.14 23.24 18.72 18.82 18.69 19.1"/>
        <path class="st7" d="M18.32,15.72l.22-.22V6.92s-3.44-3.44-3.44-3.44v-.78h.67v.68s3.21,3.21,3.21,3.21v8.43s.11,0,.11,0v-4.26s.98.98.98.98v2.2s.22-.13.22-.13v-2.82s1.36,1.36,1.36,1.36l-5.09,5.09.08.08,5.09-5.09,1.18,1.18h-1.6s-5.5,5.5-5.5,5.5l.16.16,5.43-5.43h1.73s.32.32.32.32l-3.23,3.23.16.16,3.23-3.23.63.63-2.56,2.56.08.08,2.06-2.06v1.95s-.36.36-.36.36l-.45-.45h-5.46s0,.22,0,.22h5.37s1.4,1.4,1.4,1.4v1.49s-3.04-3.04-3.04-3.04l-.08.08,3.11,3.11v6.6s.22,0,.22,0v-12.33s-2.23-2.23-2.23-2.23h1.14s.35.34.35.34v.64s1.14,1.16,1.14,1.16v9.32s.11,0,.11,0v-9.36s-1.08-1.08-1.08-1.08v-.49s1.51,1.51,1.51,1.51v10s.22.18.22.18v-10.28s-2.15-2.15-2.15-2.15v-2.29s-.11,0-.11,0v2.28h-1.36s-.38-.38-.38-.38l2.54-2.54-.08-.08-2.54,2.54-.28-.28,2.12-2.15-.08-.08-2.12,2.15-.45-.45v-1s.59-.59.59-.59h2.27s0-.11,0-.11h-2.32s-.54.54-.54.54v-1.32h2.77s0-.22,0-.22h-1.76v-1.25s.56-.56.56-.56l1.22,1.22-.02-.18-1.77-1.77.32-.32,1.43,1.43v2.51s.11,0,.11,0v-4.85s.45-.45.45-.45v7s.22,0,.22,0V3.83s.45-.45.45-.45v7.09s.11,0,.11,0V3.27s.42-.42.42-.42v4.41s-.35.28-.35.28l-.16.11.16-.03h.07s.08.08.08.08l.36-.29h.06s0-.06,0-.06l2.11-2.11v.68s-1.58,1.58-1.58,1.58h-1.17s0,.22,0,.22h1.09s0,0,0,0h0s3.28,0,3.28,0l.88.88v6.73s-.32-.32-.32-.32v-5.33s-1.18-1.18-1.18-1.18h-3.78s0,.22,0,.22h1.85s-.06.06-.06.06l2.94,2.94v3.37s1.68,1.68,1.68,1.68l.16-.16-1.19-1.19v-.61s1.05,1.05,1.05,1.05l.08-.08-1.13-1.13v-2.2h1.2s0-.11,0-.11h-1.2v-3.81s-.83-.83-.83-.83h.76s1.43,1.43,1.43,1.43l.08-.08-1.35-1.35h.72s0-.22,0-.22h-2.48s.58-.58.58-.58h2.29s0-.11,0-.11h-2.18s.39-.39.39-.39h2s0-.22,0-.22h-2.1s-1.3,1.3-1.3,1.3h-.8s1.15-1.15,1.15-1.15v-.5h3.25s0-.11,0-.11h-3.25v-.22h2.8s0-.11,0-.11h-1.94s.74-.74.74-.74h.83s0-.22,0-.22h-2.93s-1.28,1.28-1.28,1.28v-1.05s.64-.64.64-.64h3.88s0-.11,0-.11h-3.92s-.71.71-.71.71v1.21s-1.2,1.2-1.2,1.2v-1.93s1.4-1.4,1.4-1.4h4.48s0-.11,0-.11h-1.89s1.56-1.56,1.56-1.56l-.08-.08-1.64,1.64h-2.48s-1.35,1.35-1.35,1.35v-.35s1.29-1.29,1.29-1.29h2.33s2.13-2.13,2.13-2.13l-.16-.16-2.06,2.06h-1.34s1.84-1.84,1.84-1.84l-.08-.08-1.92,1.92h-.84s-1.19,1.19-1.19,1.19v-.87s2.29-2.29,2.29-2.29l-.08-.08-2.21,2.21v-.64s1.98-1.98,1.98-1.98l-.16-.16-1.98,1.98h-.78v-1.23s-.11,0-.11,0v1.23h-.7s-.4.4-.4.4l-.59-.59v-1.27s-.11,0-.11,0v1.32s.62.62.62.62l-.29.29-.8-.8V.74s-.22,0-.22,0v3.05s-.65.65-.65.65v-.86s-.73-.73-.73-.73v-1.54s-.11,0-.11,0v1.58s.73.73.73.73v.92s-.66.66-.66.66v4.25s-.42-.42-.42-.42V3.72s-.53-.53-.53-.53V.74s-.22,0-.22,0v4.13s-.5-.5-.5-.5v-1.23s-.25-.25-.25-.25V.67s-.11,0-.11,0v2.27s.25.25.25.25v1.08s-.45-.45-.45-.45V.74s-.22,0-.22,0v2.85s-1.11-1.11-1.11-1.11v-1.3s-.11,0-.11,0v1.29h-1.83V.74s-.22,0-.22,0v2.83s3.44,3.44,3.44,3.44v8.71ZM29.62,9.79v1.02s-1.34-1.34-1.34-1.34v-.74h.28s1.05,1.05,1.05,1.05ZM26.77,8.73h1.4v.79s1.45,1.45,1.45,1.45v.62s-2.85-2.85-2.85-2.85ZM28.24,4.67h1.85s-.74.74-.74.74h-.82s0,.9,0,.9l-1.2,1.2h-1.1s1.54-1.54,1.54-1.54v-.84s.46-.46.46-.46ZM15.87,2.69h.25s3.3,3.3,3.3,3.3v.88s-3.56-3.56-3.56-3.56v-.63ZM20.07,11.58l-.98-.98v-3.91s.35.35.35.35v3.1s.64.64.64.64v.81ZM23.53,17.9l.29-.31v-2.08s.49-.5.49-.5h0s0,3.68,0,3.68l-.79-.79ZM20.82,6.2l2.15-2.15v.46s-2.15,2.15-2.15,2.15v-.46ZM20.82,8.51v-.32h.9v.32h-.9ZM22.3,6.63l-.59.59v.86h-.9v-1.1s.92-.92.92-.92l.57.57ZM23.19,3.4l.71-.71h1.27s-1.05,1.05-1.05,1.05v.4s-.56.56-.56.56v2.22s-1.35-1.35-1.35-1.35l.97-.97v-1.2ZM22.24,3.88v-1.28s.73.73.73.73v.57s-2.15,2.15-2.15,2.15v-.74s1.42-1.42,1.42-1.42ZM20.07,3.76v5.33s.53.53.53.53v1.36s-.94-.94-.94-.94V3.35s.41.41.41.41ZM19.43,5.84l-3.15-3.15h.65s2.5,2.5,2.5,2.5v.65Z"/>
        <path class="st12" d="M2.48,10.05l-1.1-1.1-.08.08,1.18,1.18v.94H.82s0,.22,0,.22h1.67v1.13s1.14,1.14,1.14,1.14h-.9s-1.59-1.59-1.59-1.59l-.08.08,1.51,1.51H.84s0,.22,0,.22h4.35s2.61-2.61,2.61-2.61l-.42.11-2.28,2.28h-.74s2.26-2.26,2.26-2.26h1.8s.23-.22.23-.22h-4.19s-.62.62-.62.62l-1.14-1.14v-.99S.46,7.39.46,7.39l-.16.16,2.18,2.18v.32ZM4.56,11.37h1.91s-2.26,2.26-2.26,2.26h-.27s-.82-.82-.82-.82l1.45-1.45ZM3.77,11.84l-.81.81-.25-.25v-1.62s1.07,1.07,1.07,1.07Z"/>
        <polygon class="st10" points="24.34 24.58 27.85 28.08 27.85 30.11 27.31 29.57 27.31 28.57 24.38 25.64 24.3 25.72 27.2 28.62 27.2 29.62 27.85 30.27 27.85 31.23 28.07 31.23 28.07 27.99 24.5 24.42 24.34 24.58"/>
        <polygon class="st6" points="31.39 27.65 31.55 27.5 28.78 24.73 26.59 24.73 26.59 24.95 27.97 24.95 29.69 26.67 29.69 31.58 29.8 31.58 29.8 26.78 30.12 27.1 30.12 31.58 30.23 31.58 30.23 29.5 31.33 30.6 31.41 30.52 30.23 29.34 30.23 28.35 31.33 29.46 31.41 29.38 30.23 28.2 30.23 27.05 28.13 24.95 28.69 24.95 31.39 27.65"/>
        <path class="st5" d="M2.55,6.06l-1.21-1.21-.08.08,1.29,1.29v1.72s-1.66-1.66-1.66-1.66l-.16.16,3.72,3.72h2.28s0-.22,0-.22h-.06s.24,0,.24,0l-3.25-3.25v-2.85s.3.3.3.3v2.4s3.41,3.47,3.41,3.47l.08-.08-3.37-3.44v-2.4s-.41-.41-.41-.41v-1.09s.74.74.74.74v3.02s3.55,3.75,3.55,3.75l.16-.16-3.48-3.68v-1.41h.86v1.86s2.15,2.07,2.15,2.07l.08-.08-2.12-2.04v-1.81h.65v1.99s2.65,2.29,2.65,2.29v-.28s-1.65-1.39-1.65-1.39l.06-3-.74-.74h-.62v-1.62s1.69,1.69,1.69,1.69v5.92s.22,0,.22,0V.74s-.22,0-.22,0v2.73S4.91.74,4.91.74l-.16.16,1.08,1.09v1.73h-.51v-.79s-1.83-1.83-1.83-1.83l-.08.08,1.79,1.79v1.64h-.6v-1.38S1.69.3,1.69.3l-.16.16.74.74v1.82s.78.78.78.78v4.64s-.28-.28-.28-.28v-3.64s-1.9-1.9-1.9-1.9l-.16.16,1.84,1.84v1.45ZM5.33,3.83h1.2s.67.67.67.67l-.06,2.84-.67-.59v-2.12s-1.14,0-1.14,0v-.79ZM3.94,9.32v-2.05s2.09,2.09,2.09,2.09h-2.05s-.05-.05-.05-.05ZM4.55,9.93l-.45-.45h2.05s.45.45.45.45h-2.05ZM2.38,2.97v-1.66s1.06,1.06,1.06,1.06v4.41s.39.39.39.39v2.05s-.67-.67-.67-.67V3.75s-.78-.78-.78-.78Z"/>
        <polygon class="st4" points="23.91 27.1 24.32 26.64 24.35 26.56 24.33 26.39 19.35 31.37 19.51 31.53 22.08 28.95 22.08 29.44 20.2 31.32 20.28 31.4 22.19 29.48 22.19 28.84 23.8 27.23 23.8 28.32 20.94 31.19 21.01 31.26 22.55 29.73 22.55 31.5 22.66 31.5 22.66 29.62 23.8 28.48 23.8 29.44 23.21 30.03 23.21 31.45 23.32 31.45 23.32 30.07 23.91 29.48 23.91 27.12 23.92 27.11 23.91 27.1"/>
        <path class="st27" d="M26.59,31.12v-1.98s-.94-.94-.94-.94v-1.24s-.11,0-.11,0v1.29s.94.94.94.94v1.82s-.62-.62-.62-.62v-1.53s-.61-.61-.61-.61v-1.69s-.22-.27-.22-.27v3.58s1.43,1.43,1.43,1.43l.02-.02v.05s.11,0,.11,0v-.16s.02-.02.02-.02l-.02-.02ZM25.25,28.41l.49.49v1.37s-.49-.49-.49-.49v-1.37Z"/>
        <polygon class="st26" points="26.59 24.97 29.24 27.62 29.24 31.44 29.47 31.44 29.47 27.53 26.75 24.81 26.59 24.97"/>
        <polygon class="st33" points="1.25 19.55 1.25 19.67 4.78 19.67 8.33 23.21 8.41 23.13 4.83 19.55 1.25 19.55"/>
        <path class="st24" d="M8.3,3.06l1.7-1.7-.08-.08-1.74,1.74v.11s.11-.06.11-.06ZM8.3,5.68l1.07-1.07v1.43h-.52s0,1.36,0,1.36h.22s0-1.14,0-1.14h2.23s.98-.98.98-.98v.85s-1.01.83-1.01.83v.13s1.01-.81,1.01-.81v.62s-1.75,1.41-1.75,1.41l.02.26,1.95-1.58v-1.94s1.33-1.33,1.33-1.33v.97s-.65.65-.65.65v1.64s-2.64,2.18-2.64,2.18v.16s2.75-2.3,2.75-2.3v-1.64s.54-.54.54-.54v2.35s-3.09,2.76-3.09,2.76l.16.16,2.93-2.6v1.52s-.89.89-.89.89h-1.61s0,.17,0,.17l-.04.04,1.33,1.33v.72s1.26,1.26,1.26,1.26l.06-.06h.11s0-1.83,0-1.83l.78.78v6.03s.11,0,.11,0v-6.07s-.89-.89-.89-.89v-.64h1.28v8.62s.22-.22.22-.22v-8.63s-.79,0-.79,0v-2.84s-.72-.72-.72-.72v-.69s1.21,1.21,1.21,1.21v1.98s.78.78.78.78v8.73s.11,0,.11,0v-8.62s.39.39.39.39v7.74s.11,0,.11,0v-7.79s-1.28-1.28-1.28-1.28v-1.82s.83.83.83.83v1.06s1.15,1.15,1.15,1.15v6.08s.22-.19.22-.19v-5.98s-.72-.72-.72-.72v-2.79s-1.7-1.7-1.7-1.7v-.39s1.95,1.95,1.95,1.95v1.1s.84.84.84.84v7.26s.11,0,.11,0v-7.31s-.84-.84-.84-.84v-1.1s-2.63-2.63-2.63-2.63V.82s-.11,0-.11,0v3.45s.57.57.57.57v.55s1.7,1.7,1.7,1.7v2.64s-.32-.32-.32-.32v-2.22s-2.37-2.37-2.37-2.37h0s0-4.08,0-4.08h-.22s0,2.68,0,2.68l-.42.42V1.11s-.11,0-.11,0v2.85s-.51.51-.51.51V.74s-.22,0-.22,0v2.19s-.44.44-.44.44V.9s-.11,0-.11,0v2.59s-1.3,1.3-1.3,1.3v1.25h-.47v-2.09s1.26-1.26,1.26-1.26V.74s-.22,0-.22,0v1.06s-1.92,1.92-1.92,1.92v.74s-.48.48-.48.48v-1.55s2.06-2.06,2.06-2.06l-.08-.08-2.09,2.09v1.68s-.34.34-.34.34l-.13.32M13.02,10.16l.8-.8v3.17s-.53-.53-.53-.53h0s0-.95,0-.95l-.89-.89h.6ZM13.19,11.89l-1.74-1.74h.81s.93.93.93.93v.81ZM12.73,11.58l1.1,1.1v.56s-1.1-1.1-1.1-1.1v-.56ZM14.65,7.74v2.8h-.61v-3.4s.61.61.61.61ZM16.2,7.28v.85s-2.15-2.15-2.15-2.15v-.85s2.15,2.15,2.15,2.15ZM12.56,4.69l-.91.91v-1.59s.91-.91.91-.91v1.59ZM10.82,4.84l.73-.73v1.59s-.34.34-.34.34h-.39v-1.2ZM11.28,1.96v.64s-1.26,1.26-1.26,1.26v2.18h-.54v-2.28s1.81-1.81,1.81-1.81Z"/>
        <rect class="st25" x="20.83" y="19.61" width=".11" height="6.16" transform="translate(-9.93 21.41) rotate(-45)"/>
        <polygon class="st32" points="24.35 25.69 19.8 30.25 18.42 30.25 17.45 31.22 17.53 31.3 18.47 30.36 19.68 30.36 18.59 31.46 18.67 31.54 24.43 25.77 24.35 25.69"/>
        <path class="st30" d="M26,14.18v8.76s.11,0,.11,0v-8.8s-.99-.99-.99-.99v-.85s1.61,1.61,1.61,1.61v5.26s.54,0,.54,0l-.85.85v2.43s-.88.88-.88.88l.16.16,2.84-2.84v.88s-2.66,2.66-2.66,2.66l.08.08,2.58-2.58v.55s-.65.65-.65.65v.66h-1.35s0,.11,0,.11h2.2s2.6,2.6,2.6,2.6l.08-.08-2.63-2.63h-.79v-.61s.61-.61.61-.61l2.48,2.48.16-.16-1.68-1.68v-2.36s.52.52.52.52v1.8s1.2,1.2,1.2,1.2l.08-.08-1.16-1.16v-.74s1,1,1,1l.08-.08-1.07-1.07h0s0-.91,0-.91l-.63-.63v-.57s1.72,1.72,1.72,1.72l.16-.16-1.88-1.88v-.44s1.86,1.86,1.86,1.86l.08-.08-1.93-1.93v-2.21s-1.55-1.55-1.55-1.55v-2.59s-3.16-3.12-3.16-3.12l-.06.25,3,2.96v6.23h-.29v-5.87s-2.64-2.69-2.64-2.69l-.08.08,2.61,2.66v5.82h-.45v-5.13s-2.66-2.67-2.66-2.67l-.16.16.88.88v1s.99.99.99.99ZM26.54,20.06l.89-.89h1.03s-1.28,1.28-1.28,1.28v1.24s-.64.64-.64.64v-2.27ZM27.3,21.58v-1.08s1.25-1.25,1.25-1.25v1.08s-1.25,1.25-1.25,1.25ZM29.36,16.85v1.49h-.68s-.65-.65-.65-.65v-2.17s1.33,1.33,1.33,1.33ZM28.03,17.85l.6.6h.72v4.29s-.59-.59-.59-.59v-3.2s-.74,0-.74,0v-1.1Z"/>
        <polygon class="st29" points="1.12 7.39 1.04 7.47 4.28 10.71 8.9 10.71 8.9 10.6 4.32 10.6 1.12 7.39"/>
        <polygon class="st31" points="14.84 16.69 14.92 16.61 11.15 12.84 11.15 11.07 11.58 11.5 11.58 12.7 14.86 15.99 14.87 15.69 11.8 12.61 11.8 12.24 14.82 15.26 14.9 15.19 11.8 12.08 11.8 11.41 10.46 10.16 10.46 10.3 10.46 10.44 11.04 10.96 11.04 15.12 14.08 18.16 14.15 18.08 11.15 15.07 11.15 13.86 14.7 17.42 14.78 17.34 11.15 13.71 11.15 12.99 14.84 16.69"/>
        <polygon class="st28" points="24.43 23.67 28.6 27.84 28.6 31.66 28.71 31.66 28.71 27.8 24.5 23.59 24.43 23.67"/>
        <path class="st23" d="M19.93,25.25v-.3h3.43s0-.22,0-.22h-2.92v-1.04s-.94-.94-.94-.94v-1.49s-.11,0-.11,0v1.53s.94.94.94.94v.42h-1.52v-6.63s-.22,0-.22,0v7.21h-.83v-5.52s-.22,0-.22,0v5.52h-.37v-4.92s-.11,0-.11,0v4.92h-1.37s.91-.91.91-.91v-3.35s-.11,0-.11,0v2.26s0,0,0,0l-1.57,1.57v.43h-.01s-1.02,1.02-1.02,1.02v-1.51s2.69-2.69,2.69-2.69l-.08-.08-4.59,4.59v3.23s-.58.58-.58.58v1.56s.11,0,.11,0v-1.51s.58-.58.58-.58v-3.23s1.76-1.76,1.76-1.76v.72s-1.12,1.12-1.12,1.12v1.78s-.24.24-.24.24v3.37s.11,0,.11,0v-3.32s.51-.51.51-.51v3.6s.22,0,.22,0v-1.06s1.52-1.52,1.52-1.52v1.45s-1.02,1.02-1.02,1.02l.16.16,3.01-3.06,1.14.04h.03s1.29.06,1.29.06l-.5.5h-1.43s-2.36,2.36-2.36,2.36l.08.08,2.33-2.33h1.27s-2.3,2.3-2.3,2.3l.16.16,1.69-1.69h.66s1.41-1.41,1.41-1.41l.77.03,3.33-3.33-.16-.16-3.36,3.36h-2.03s.77-.77.77-.77h.58s2.17-2.17,2.17-2.17M19.71,26l-.49.49v-1.53h.49v1.05ZM19.71,26.16v.42s-1.74,1.74-1.74,1.74h-.42s2.16-2.16,2.16-2.16ZM18.8,24.26h1.52v.47h-1.52v-.47ZM15.99,27.14l1.43-1.43v-.76h.63v1.21s-.98.98-.98.98h-1.08ZM16.65,26.33l-.82.82h-.86v-.81s1.38-1.38,1.38-1.38h.3v1.37ZM16.76,24.95h.55v.71s-.55.55-.55.55v-1.26ZM15.02,24.35l1.46-1.46v.89s-.96.96-.96.96h-.51v-.38ZM14.98,24.95h1.06s-1.29,1.29-1.29,1.29v.52s-.89.89-.89.89v1.01s-.63.63-.63.63v-2.59s1.75-1.75,1.75-1.75ZM12.75,27.86v-1.62s1.01-1.01,1.01-1.01v.64s-.74.74-.74.74v.98s-.26.26-.26.26ZM13.24,29.98v-.53s.74-.74.74-.74v-1.01s.78-.78.78-.78v1.54s-1.52,1.52-1.52,1.52ZM14.98,27.36h1.29s-.78.78-.78.78v1.35s-.5.5-.5.5v-2.63ZM16.66,28.32l-1.07,1.07v-1.19s.83-.83.83-.83h.74s1.11-1.11,1.11-1.11v-1.3h.83v1.63s.01,0,.01,0l-1.73,1.73h-.73ZM19.93,26.66v-1.3h2.38s-2.07,2.07-2.07,2.07h-.58s-.88.88-.88.88h-.5s1.65-1.65,1.65-1.65ZM20.23,28.4l-1.31,1.31h-.5s1.3-1.3,1.3-1.3h.51Z"/>
        <path class="st18" d="M7.43,28.71h0s-1.38,1.37-1.38,1.37v-.92s.9-.9.9-.9v-2.89s-.12,0-.12,0l.02-.02-.08-.08-2.36,2.36v-.47s4.46-4.46,4.46-4.46l-.2-.12-4.49,4.49v1.31s-.59.59-.59.59v-1.75s3.08-3.08,3.08-3.08h.09s0-.09,0-.09l.04-.04-.04-.04v-.05s-1.84,0-1.84,0l-1.66-1.66v-.83s-1.19-1.19-1.19-1.19h.72s2.04,2.04,2.04,2.04v1.11s2.19,0,2.19,0l.47.47.16-.16-3.69-3.69H.84s0,.22,0,.22h1.09s1.24,1.24,1.24,1.24v.83s1.62,1.62,1.62,1.62h-.58s-3.09-3.09-3.09-3.09l-.16.16,2.07,2.07-.37.37-1.39-1.39-.08.08,1.39,1.39-.41.41H.84s0,.11,0,.11h1.32v.57H.84s0,.11,0,.11h1.32v.9s-.97.97-.97.97l.08.08.89-.89v1.77s-1.06,1.06-1.06,1.06l.08.08.98-.98v2.52H.84s0,.11,0,.11h1.32v.67s.22,0,.22,0v-1.62s.52-.52.52-.52v-1.52s0,0,0,0l1.35-1.35h.43s-1.19,1.19-1.19,1.19v2.16s-.61.61-.61.61v1.5s.11,0,.11,0v-1.45s.61-.61.61-.61v-.25s.59-.59.59-.59v1.22s-.63.63-.63.63v1.3s.11,0,.11,0v-1.26s.52-.52.52-.52v1.44s.22,0,.22,0v-3.57s.28-.28.28-.28v4.07s.11,0,.11,0v-4.18s1.93-1.93,1.93-1.93v.77s-1.12,1.12-1.12,1.12v.85s-.57.57-.57.57v2.66s.11,0,.11,0v-2.62s1.58-1.58,1.58-1.58v.93s-.9.9-.9.9v2.37s.22,0,.22,0v-1.2s.73-.73.73-.73v1.99s.11,0,.11,0v-2.1s.54-.54.54-.54v2.49s.11,0,.11,0v-7.42s-.11,0-.11,0v4.78ZM6.92,23.28h-1.96v-1.05s-1.99-1.99-1.99-1.99h.92s3.04,3.04,3.04,3.04ZM5.22,24.14l-2.31,2.31v-1.94s.79-.79.79-.79l.41.41h1.11ZM2.8,28.79l-.41.41v-5.2s.8-.8.8-.8l.43.43-.82.82v4.33ZM4.21,25.87l-1.3,1.3v-.56s2.47-2.47,2.47-2.47h1.15s-1.73,1.73-1.73,1.73h-.59ZM5.72,28.09v-.69s1.01-1.01,1.01-1.01v.69s-1.01,1.01-1.01,1.01Z"/>
        <rect class="st22" x="20.89" y="19.07" width=".11" height="6.32" transform="translate(-9.58 21.32) rotate(-45)"/>
        <polygon class="st16" points="26.56 10.31 26.48 10.39 28.7 12.61 28.7 15.03 30.1 16.43 30.1 18.8 31.4 20.11 31.48 20.03 30.21 18.76 30.21 16.39 28.81 14.99 28.81 11.59 26.82 9.6 26.74 9.68 28.7 11.64 28.7 12.45 26.56 10.31"/>
        <polygon class="st19" points="25.7 24.26 28.7 24.26 31.14 26.7 31.22 26.62 28.75 24.15 25.7 24.15 25.7 24.26"/>
        <polygon class="st21" points="19.31 17.43 19.23 17.51 23.14 21.41 23.14 24.91 23.36 24.91 23.36 20.83 19.91 17.38 19.75 17.54 23.14 20.92 23.14 21.26 19.31 17.43"/>
        <path class="st17" d="M4.03,15.98l.68.68H.84s0,.22,0,.22h1.64s.41.41.41.41h2.54s2.17,2.17,2.17,2.17v1.88s-.5-.5-.5-.5v-1.25s-2-2-2-2H.84s0,.11,0,.11h1.97s1.23,1.23,1.23,1.23h-.92s-.74-.74-.74-.74H.84s0,.22,0,.22h1.44s.23.23.23.23H.38s0,.11,0,.11h2.24s.4.4.4.4h2.06s3.51,3.51,3.51,3.51l.08-.08.2.12v-3.22s-2.6-2.6-2.6-2.6h1.17s1.19,1.19,1.19,1.19l.02-.02v.54s.57.57.57.57v3.78s.11,0,.11,0v-3.83s-.57-.57-.57-.57v-1.78s1.3,1.3,1.3,1.3v3.97s-2.05,2.05-2.05,2.05l.03.28,6.89-6.89-.06-.26-3.43,3.43v-3.9s-.87-.87-.87-.87V6.25s-.11,0-.11,0v9.67s.87.87.87.87v1.07s-1.33-1.33-1.33-1.33V6.25s-.22,0-.22,0v11.22s-1.46-1.46-1.46-1.46l.74-.74v-7.88s-.22,0-.22,0v7.78s-1.48,1.48-1.48,1.48h-2.35s-.37-.37-.37-.37h2.43s1.26-1.26,1.26-1.26v-2.46s1.64-1.64,1.64-1.64l-.16-.16-3.75,3.75h-.73s3.64-3.64,3.64-3.64l.04-.19-3.83,3.83H.84s0,.22,0,.22h1.23s.69.69.69.69H.84s0,.22,0,.22h2.86s.21.21.21.21H.11s0,.11,0,.11h3.92ZM10.17,18.17l.41.41v2.93s-.41.41-.41.41v-3.75ZM10.01,16.69l1.33,1.33v2.74s-.53.53-.53.53v-2.8s-.79-.79-.79-.79v-1ZM8.65,16.65v1.29s-1.13-1.13-1.13-1.13l.64-.64.48.48ZM4.2,18.92l-1.23-1.23h2.08s1.94,1.94,1.94,1.94v1.09s-1.8-1.8-1.8-1.8h-.99ZM8.65,19.57v2.82s-.95-.95-.95-.95v-2.04s-2.24-2.24-2.24-2.24h-2.54s-.29-.29-.29-.29h3.33s2.69,2.69,2.69,2.69ZM7.72,15.49h-.77s1.35-1.35,1.35-1.35v.77s-.59.59-.59.59ZM6.16,14.74l2.14-2.14v1.38s-1.51,1.51-1.51,1.51h-2.04s-.75-.75-.75-.75h2.16ZM2.93,15.44l-.69-.69h1.61s.86.86.86.86h2.9s-.57.57-.57.57h-2.49s-.74-.74-.74-.74h-.87Z"/>
        <polygon class="st14" points="10.9 28.42 10.9 26.13 10.17 25.39 10.09 25.47 10.79 26.17 10.79 28.38 8.24 30.93 8.24 30.5 10.29 28.44 10.29 25.55 10.18 25.55 10.18 28.4 8.24 30.34 8.24 29.86 9.52 28.57 9.52 23.97 9.3 23.97 9.3 28.48 8.82 28.96 8.82 23.57 8.71 23.57 8.71 29.07 8.24 29.55 8.24 24.09 8.02 24.09 8.02 31.32 8.24 31.32 8.24 31.09 10.9 28.42"/>
      </g>
      <rect class="st15" x="6.74" y="9.93" width="4.58" height=".22" transform="translate(18.06 20.09) rotate(-180)"/>
      <rect class="st20" x="10.54" y="6.96" width=".74" height=".13" transform="translate(21.82 14.06) rotate(-180)"/>
      <rect class="st56" x="10.06" y="23.08" width=".11" height=".98" transform="translate(20.23 47.13) rotate(-180)"/>
      <polygon class="st62" points="16 20.02 15.81 20.15 15.81 19.11 16 19.11 16 20.02"/>
      <polygon class="st65" points="13.82 14.23 14.04 14.41 14.04 13.39 13.82 13.39 13.82 14.23"/>
    </g>
  </g>
  <path class="st64" d="M16,31.26C7.59,31.26.74,24.41.74,16S7.59.74,16,.74s15.26,6.84,15.26,15.26-6.84,15.26-15.26,15.26ZM16,1.04C7.75,1.04,1.04,7.75,1.04,16s6.71,14.96,14.96,14.96,14.96-6.71,14.96-14.96S24.25,1.04,16,1.04Z"/>
  <polygon class="st63" points="22.06 5.38 22.06 3.67 10.03 3.67 10.03 5.38 8.29 5.38 8.29 26.57 10.03 26.57 10.03 28.45 22.06 28.45 22.06 26.57 23.8 26.57 23.8 5.38 22.06 5.38"/>
  <path class="st13" d="M22.1,5.34v-1.71h-12.11v1.71h-1.74v21.27h1.74v1.88h12.11v-1.88h1.74V5.34h-1.74ZM23.62,5.56v20.83h-1.74v1.88h-11.67v-1.88h-1.74V5.56h1.74v-1.71h11.67v1.71h1.74Z"/>
  <g>
    <polygon class="st59" points="22.06 5.38 22.06 3.67 13.51 3.67 13.51 3.81 21.92 3.81 21.92 5.52 23.66 5.52 23.66 26.43 21.92 26.43 21.92 28.31 10.17 28.31 10.17 26.43 8.43 26.43 8.43 5.52 10.17 5.52 10.17 3.81 13.51 3.81 13.51 3.67 10.03 3.67 10.03 5.38 8.29 5.38 8.29 26.57 10.03 26.57 10.03 28.45 22.06 28.45 22.06 26.57 23.8 26.57 23.8 5.38 22.06 5.38"/>
    <path class="st13" d="M22.1,28.49h-12.11v-1.88h-1.74V5.34h1.74v-1.71h12.11v1.71h1.74v21.27h-1.74v1.88ZM10.21,28.27h11.67v-1.88h1.74V5.56h-1.74v-1.71h-11.67v1.71h-1.74v20.83h1.74v1.88Z"/>
  </g>
  <polygon class="st0" points="20.54 7.03 20.54 5.38 16.05 5.38 11.55 5.38 11.55 7.03 9.91 7.03 9.91 24.86 11.54 24.86 11.54 26.74 16.05 26.74 20.56 26.74 20.56 24.86 22.18 24.86 22.18 7.03 20.54 7.03"/>
  <polygon class="st0" points="20.91 6.5 20.91 4.75 16.05 4.75 11.19 4.75 11.19 6.5 9.42 6.5 9.42 25.38 11.17 25.38 11.17 27.37 16.05 27.37 20.92 27.37 20.92 25.38 22.67 25.38 22.67 6.5 20.91 6.5"/>
  <polyline class="st84" points="15.93 12.38 15.97 12.48 22.71 9.46 22.67 9.36"/>
  <g class="st3">
    <g>
      <g>
        <g>
          <rect class="st58" x="9.39" y="17.16" width="6.79" height=".11" transform="translate(-1.84 1.53) rotate(-6.41)"/>
          <rect class="st61" x="9.32" y="18.42" width="6.91" height=".11" transform="translate(-3.73 3.24) rotate(-12.64)"/>
          <rect class="st60" x="9.22" y="19.68" width="7.11" height=".11" transform="translate(-5.63 5.11) rotate(-18.61)"/>
          <rect class="st57" x="9.08" y="20.94" width="7.39" height=".11" transform="translate(-7.47 7.07) rotate(-24.17)"/>
          <rect class="st67" x="8.91" y="22.2" width="7.73" height=".11" transform="translate(-9.25 9.09) rotate(-29.27)"/>
          <rect class="st75" x="8.72" y="23.45" width="8.13" height=".11" transform="translate(-10.94 11.12) rotate(-33.89)"/>
          <rect class="st70" x="8.49" y="24.7" width="8.57" height=".14" transform="translate(-12.56 13.15) rotate(-38.08)"/>
          <rect class="st69" x="8.25" y="25.97" width="9.06" height=".11" transform="translate(-14.12 15.19) rotate(-41.91)"/>
        </g>
        <g>
          <rect class="st68" x="9.41" y="15.9" width="6.74" height=".11"/>
          <rect class="st74" x="12.72" y="11.3" width=".11" height="6.79" transform="translate(-3.25 25.76) rotate(-83.6)"/>
          <rect class="st73" x="12.72" y="9.98" width=".11" height="6.91" transform="translate(-3.13 22.97) rotate(-77.36)"/>
          <rect class="st72" x="12.72" y="8.62" width=".11" height="7.11" transform="translate(-2.84 20.41) rotate(-71.41)"/>
          <rect class="st71" x="12.72" y="7.22" width=".11" height="7.39" transform="translate(-2.41 18.11) rotate(-65.85)"/>
          <rect class="st66" x="12.72" y="5.8" width=".11" height="7.73" transform="translate(-1.9 16.08) rotate(-60.73)"/>
          <rect class="st43" x="12.72" y="4.34" width=".11" height="8.13" transform="translate(-1.32 14.32) rotate(-56.07)"/>
          <rect class="st42" x="12.72" y="2.86" width=".11" height="8.57" transform="translate(-.73 12.79) rotate(-51.88)"/>
          <rect class="st39" x="12.72" y="1.36" width=".11" height="9.06" transform="translate(-.13 11.47) rotate(-48.11)"/>
          <rect class="st37" x="12.72" y="-.16" width=".11" height="9.58" transform="translate(.45 10.34) rotate(-44.75)"/>
        </g>
      </g>
      <g>
        <g>
          <rect class="st41" x="19.26" y="13.82" width=".11" height="6.79" transform="translate(.06 34.49) rotate(-83.59)"/>
          <rect class="st34" x="19.26" y="15.02" width=".11" height="6.91" transform="translate(-2.93 33.28) rotate(-77.36)"/>
          <rect class="st36" x="19.26" y="16.18" width=".11" height="7.11" transform="translate(-5.55 31.74) rotate(-71.39)"/>
          <rect class="st40" x="19.26" y="17.3" width=".11" height="7.39" transform="translate(-7.74 30.02) rotate(-65.83)"/>
          <polygon class="st38" points="22.66 24.19 22.67 24.09 15.92 20.31 15.92 20.41 22.66 24.19"/>
          <polygon class="st35" points="22.66 25.82 22.67 25.73 15.93 21.2 15.92 21.29 22.66 25.82"/>
          <polygon class="st53" points="22.6 27.47 22.74 27.36 15.99 22.07 15.85 22.18 22.6 27.47"/>
          <polygon class="st46" points="22.6 29.09 22.73 29.01 15.98 22.96 15.86 23.04 22.6 29.09"/>
        </g>
        <g>
          <rect class="st52" x="15.95" y="15.9" width="6.74" height=".11"/>
          <rect class="st47" x="15.93" y="14.64" width="6.79" height=".11" transform="translate(-1.52 2.24) rotate(-6.4)"/>
          <rect class="st51" x="15.86" y="13.38" width="6.91" height=".11" transform="translate(-2.47 4.55) rotate(-12.64)"/>
          <rect class="st45" x="15.76" y="12.12" width="7.11" height=".11" transform="translate(-2.87 6.79) rotate(-18.59)"/>
          <rect class="st44" x="15.62" y="10.86" width="7.39" height=".11" transform="translate(-2.78 8.86) rotate(-24.15)"/>
          <rect class="st50" x="15.45" y="9.61" width="7.73" height=".11" transform="translate(-2.26 10.68) rotate(-29.27)"/>
          <rect class="st48" x="15.26" y="8.35" width="8.13" height=".11" transform="translate(-1.4 12.21) rotate(-33.93)"/>
          <rect class="st49" x="15.03" y="7.09" width="8.57" height=".11" transform="translate(-.29 13.45) rotate(-38.12)"/>
          <rect class="st77" x="14.79" y="5.83" width="9.06" height=".11" transform="translate(1.01 14.4) rotate(-41.89)"/>
          <rect class="st76" x="14.53" y="4.57" width="9.58" height=".11" transform="translate(2.43 15.09) rotate(-45.25)"/>
        </g>
      </g>
    </g>
  </g>
  <path class="st13" d="M21.4,6.06v-1.71h-10.7v1.71h-1.74v19.83h1.74v1.88h10.7v-1.88h1.74V6.06h-1.74ZM22.92,6.28v19.39h-1.74v1.88h-10.26v-1.88h-1.74V6.28h1.74v-1.71h10.26v1.71h1.74Z"/>
  <path class="st0" d="M16.05,3.44c-2.95,0-5.34,2.4-5.34,5.34,0,1.36.52,2.66,1.43,3.64-.91.98-1.43,2.28-1.43,3.64s.52,2.66,1.43,3.64c-.91.98-1.43,2.28-1.43,3.64,0,2.95,2.4,5.34,5.34,5.34s5.34-2.4,5.34-5.34c0-1.36-.52-2.66-1.43-3.64.91-.98,1.43-2.28,1.43-3.64s-.52-2.66-1.43-3.64c.91-.98,1.43-2.28,1.43-3.64,0-2.95-2.4-5.34-5.34-5.34h0Z"/>
  <path class="st13" d="M16.05,3.96c-2.66,0-4.83,2.16-4.83,4.83,0,1.4.61,2.73,1.66,3.64-1.04.91-1.66,2.24-1.66,3.64s.61,2.73,1.66,3.64c-1.04.91-1.66,2.24-1.66,3.64,0,2.66,2.16,4.83,4.83,4.83s4.83-2.16,4.83-4.83c0-1.4-.61-2.73-1.66-3.64,1.04-.91,1.66-2.24,1.66-3.64s-.61-2.73-1.66-3.64c1.04-.91,1.66-2.24,1.66-3.64,0-2.66-2.16-4.83-4.83-4.83h0Z"/>
  <path class="st79" d="M16.05,5.06c2.05,0,3.72,1.67,3.72,3.72,0,1.4-.78,2.67-2.02,3.31l-.64.33.64.33c1.25.64,2.02,1.91,2.02,3.31s-.78,2.67-2.02,3.31l-.64.33.64.33c1.25.64,2.02,1.91,2.02,3.31,0,2.05-1.67,3.72-3.72,3.72s-3.72-1.67-3.72-3.72c0-1.4.78-2.67,2.02-3.31l.64-.33-.64-.33c-1.25-.64-2.02-1.91-2.02-3.31s.78-2.67,2.02-3.31l.64-.33-.64-.33c-1.25-.64-2.02-1.91-2.02-3.31,0-2.05,1.67-3.72,3.72-3.72M16.05,4.84c-2.17,0-3.94,1.77-3.94,3.94,0,1.48.82,2.83,2.15,3.51l.26.13-.26.13c-1.32.68-2.15,2.02-2.15,3.51s.82,2.83,2.15,3.51l.26.13-.26.13c-1.32.68-2.15,2.02-2.15,3.51,0,2.17,1.77,3.94,3.94,3.94s3.94-1.77,3.94-3.94c0-1.48-.82-2.83-2.15-3.51l-.26-.13.26-.13c1.32-.68,2.15-2.02,2.15-3.51s-.82-2.83-2.15-3.51l-.26-.13.26-.13c1.32-.68,2.15-2.02,2.15-3.51,0-2.17-1.77-3.94-3.94-3.94h0Z"/>
  <g>
    <path class="st78" d="M17.64,14.74c-.19-.19-.42-.35-.66-.49-.25-.14-.48-.25-.69-.33-.07-.03-.44-.09-.64-.12-.08-.01-.17-.02-.25,0-.27.03-.51.12-.71.28h-.02s-.03-.02-.03-.02c-.05-.08-.1-.31-.36-.37-.07,0,0,.1,0,.15-.01.25-.05.51-.08.77-.01.07-.02.15.04.22.1.13.33.4.42.53.1.14.19.18.21.19.07.04.16.1.18.1.13,0,.28.04.31-.1.02.4-.01,1.1-.08,1.85l.23.15s-.06,0-.09,0c-.44-.04-.89-.46-1.06-.64.25.72.18.98.84,1.57.29.02.72-.07,1.01-.12,0,0,.4-.08.56-.12.05-.01.2-.09.45-.24.23-.15.43-.34.59-.57,0,0,0,0,0,0,.09-.12.18-.35.2-.5.08-.4.08-.69.08-.9.03-.76-.26-1.05-.47-1.27ZM16.9,16.7c-.12.36-.28.64-.46.86-.06,0-.12,0-.18,0,0-.01.01-.02.02-.04h0s.02-.03.02-.05h.02c-.01-.11-.02-.17-.03-.24,0-.03,0-.06,0-.09,0-.02,0-.02,0-.01,0,0,0-.01,0-.03v-.16c0-.28.03-1.32.03-1.32v-.03c.05-.21-.18-.33-.52-.37-.03,0-.05-.04-.03-.05.55-.45.51-.25.68-.18.3.13.47.26.49.38.06.36.04.8-.03,1.33Z"/>
    <path class="st81" d="M16.05,11.36c-.26-.14-.35-.18-.43-.27-.09-.09-.32-.43-.35-.48-.04-.06-.15-.21-.17-.24v-.07s.15.1.27.18c.09-.02.14-.05.14-.1,0,0-.01,0-.04,0,.03-.44.04-.73.03-.86,0-.08-.02-.14-.02-.19-.02.01-.03.02-.05.03-.05.04-.12.09-.21.13h0s-.01.01-.02.02h.01s-.02,0-.03,0h-.13c0-.14.13-.38.3-.64,0-.03-.09-.24-.09-.24.06-.01.12-.01.18,0l.06-.08c-.3,0-.61-.47-1.51-1.25v-.09c.01-.08.06-.12.13-.12h.1c.52,0,1.05.34,1.62,1.02.15-.24.45-.61.9-1.11,0-.02.08-.18.24-.48h.08c.06,0-.03-.06.02-.05,0-.02-.07-.02-.06-.04.15-.21.2-.55.19-.6,0-.05,0-.06.02-.02.01.04.07.17.13.26.04.07.44.61.61.85.01.01.08.12.08.12.09.15.18.06.19.21.03.34-.62.81-.62.81-.27.22-1.01.71-1.3.85.17.09.35.25.52.47v.06c-.04.21-.07.41-.1.57s-.03.32-.03.48c0,.27,0,.41,0,.41.04.1.07.27.08.51h-.02c0,.05-.04.12-.15.13h-.06c-.06,0-.12,0-.18-.02-.12-.03-.24-.08-.33-.12Z"/>
    <path class="st80" d="M18.01,24.02v-.04s-.02-.14-.02-.14c-.03-.03-.12-.13-.14-.15-.35-.22-.2-.32-.46-.35-.12-.03-.26-.05-.4-.07-.23-.02-.06.06-1.1.29-.04.04-.17-.01-.15.06.04.09.09.14.15.18,0,.01,0,.02,0,.03,0,0,0,.01,0,.02h0s0,.02,0,.03c.1.13.32.23.67.29.09.02-.02.02.09.03.06-.02.1-.03.13-.07.34-.03.25,0,.26.02l-.02.18-.37.13c-.31.14-.48.17-1.07.23-.15-.25-.24-.51-.3-.89.01-.54.07-.98.19-1.33.04-.12.22-.22.55-.3.31.02.13.1.2.26l.37.36c.02.14.18.13.3.15.02,0,.12-.04.19-.07.03-.01.12-.03.23-.16.1-.12.35-.3.46-.41.07-.06.07-.15.06-.22-.01-.26-.02-.53-.02-.78,0-.05.07-.15,0-.15-.27.02-.33.25-.39.32h-.03s-.02.01-.02.01c-.37-.21-.13-.35-.51-.41-.08-.01-.16,0-.25,0-.2,0-.72.03-1,.11-.95.25-1.33.97-1.43,1.74-.03.22-.08.5-.07.92,0,.15.05.4.12.54,0,0,0,0,0,0,.12.25.31.45.49.67.52.61.61.63,1.36.56.08,0,.19-.08.19-.08,0,0,.14-.11.18-.15.49-.42.55-.53.68-.71,0,.07,0,.07,0,.08,0,0,0,.04,0,.05-.02.11-.04.23-.05.34v.06c0,.11.07.05.03.15,0,.03-.02.07.01.1.01.01.04.02.03.04,0,0,0,0,0,0h0s0,.03.03.03h0s.02-.06.03-.03c0,0,0,.03,0,.03,0,0,0,0,.01.01-.02.1-.13.07-.19.16-.01.03.02,0,.03,0,.45-.08.6-.51.6-.51,0,0,0,0,0,0,.01-.01.02-.02.03-.03.01-.06.19-.46.28-.8,0,0,.02-.12.02-.15,0,0,0-.02,0-.03,0,0,0-.01,0-.02h0s0-.06,0-.09"/>
  </g>
  <g>
    <path class="st1" d="M17.58,14.79c-.19-.19-.42-.35-.66-.49-.25-.14-.48-.25-.69-.33-.07-.03-.44-.09-.64-.12-.08-.01-.17-.02-.25,0-.27.03-.51.12-.71.28h-.02s-.03-.02-.03-.02c-.05-.08-.1-.31-.36-.37-.07,0,0,.1,0,.15-.01.25-.05.51-.08.77-.01.07-.02.15.04.22.1.13.33.4.42.53.1.14.19.18.21.19.07.04.16.1.18.1.13,0,.28.04.31-.1.02.4-.01,1.1-.08,1.85l.23.15s-.06,0-.09,0c-.44-.04-.89-.46-1.06-.64.25.72.18.98.84,1.57.29.02.72-.07,1.01-.12,0,0,.4-.08.56-.12.05-.01.2-.09.45-.24.23-.15.43-.34.59-.57,0,0,0,0,0,0,.09-.12.18-.35.2-.5.08-.4.08-.69.08-.9.03-.76-.26-1.05-.47-1.27ZM16.83,16.75c-.12.36-.28.64-.46.86-.06,0-.12,0-.18,0,0-.01.01-.02.02-.04h0s.02-.03.02-.05h.02c-.01-.11-.02-.17-.03-.24,0-.03,0-.06,0-.09,0-.02,0-.02,0-.01,0,0,0-.01,0-.03v-.16c0-.28.03-1.32.03-1.32v-.03c.05-.21-.18-.33-.52-.37-.03,0-.05-.04-.03-.05.55-.45.51-.25.68-.18.3.13.47.26.49.38.06.36.04.8-.03,1.33Z"/>
    <path class="st1" d="M15.98,11.41c-.26-.14-.35-.18-.43-.27-.09-.09-.32-.43-.35-.48-.04-.06-.15-.21-.17-.24v-.07s.15.1.27.18c.09-.02.14-.05.14-.1,0,0-.01,0-.04,0,.03-.44.04-.73.03-.86,0-.08-.02-.14-.02-.19-.02.01-.03.02-.05.03-.05.04-.12.09-.21.13h0s-.01.01-.02.02h.01s-.02,0-.03,0h-.13c0-.14.13-.38.3-.64,0-.03-.09-.24-.09-.24.06-.01.12-.01.18,0l.06-.08c-.3,0-.61-.47-1.51-1.25v-.09c.01-.08.06-.12.13-.12h.1c.52,0,1.05.34,1.62,1.02.15-.24.45-.61.9-1.11,0-.02.08-.18.24-.48h.08c.06,0-.03-.06.02-.05,0-.02-.07-.02-.06-.04.15-.21.2-.55.19-.6,0-.05,0-.06.02-.02.01.04.07.17.13.26.04.07.44.61.61.85.01.01.08.12.08.12.09.15.18.06.19.21.03.34-.62.81-.62.81-.27.22-1.01.71-1.3.85.17.09.35.25.52.47v.06c-.04.21-.07.41-.1.57s-.03.32-.03.48c0,.27,0,.41,0,.41.04.1.07.27.08.51h-.02c0,.05-.04.12-.15.13h-.06c-.06,0-.12,0-.18-.02-.12-.03-.24-.08-.33-.12Z"/>
    <path class="st1" d="M17.95,24.07v-.04s-.02-.14-.02-.14c-.03-.03-.12-.13-.14-.15-.35-.22-.2-.32-.46-.35-.12-.03-.26-.05-.4-.07-.23-.02-.06.06-1.1.29-.04.04-.17-.01-.15.06.04.09.09.14.15.18,0,.01,0,.02,0,.03,0,0,0,.01,0,.02h0s0,.02,0,.03c.1.13.32.23.67.29.09.02-.02.02.09.03.06-.02.1-.03.13-.07.34-.03.25,0,.26.02l-.02.18-.37.13c-.31.14-.48.17-1.07.23-.15-.25-.24-.51-.3-.89.01-.54.07-.98.19-1.33.04-.12.22-.22.55-.3.31.02.13.1.2.26l.37.36c.02.14.18.13.3.15.02,0,.12-.04.19-.07.03-.01.12-.03.23-.16.1-.12.35-.3.46-.41.07-.06.07-.15.06-.22-.01-.26-.02-.53-.02-.78,0-.05.07-.15,0-.15-.27.02-.33.25-.39.32h-.03s-.02.01-.02.01c-.37-.21-.13-.35-.51-.41-.08-.01-.16,0-.25,0-.2,0-.72.03-1,.11-.95.25-1.33.97-1.43,1.74-.03.22-.08.5-.07.92,0,.15.05.4.12.54,0,0,0,0,0,0,.12.25.31.45.49.67.52.61.61.63,1.36.56.08,0,.19-.08.19-.08,0,0,.14-.11.18-.15.49-.42.55-.53.68-.71,0,.07,0,.07,0,.08,0,0,0,.04,0,.05-.02.11-.04.23-.05.34v.06c0,.11.07.05.03.15,0,.03-.02.07.01.1.01.01.04.02.03.04,0,0,0,0,0,0h0s0,.03.03.03h0s.02-.06.03-.03c0,0,0,.03,0,.03,0,0,0,0,.01.01-.02.1-.13.07-.19.16-.01.03.02,0,.03,0,.45-.08.6-.51.6-.51,0,0,0,0,0,0,.01-.01.02-.02.03-.03.01-.06.19-.46.28-.8,0,0,.02-.12.02-.15,0,0,0-.02,0-.03,0,0,0-.01,0-.02h0s0-.06,0-.09"/>
  </g>
  <g>
    <path class="st83" d="M17.64,14.74c-.19-.19-.42-.35-.66-.49-.25-.14-.48-.25-.69-.33-.07-.03-.44-.09-.64-.12-.08-.01-.17-.02-.25,0-.27.03-.51.12-.71.28h-.02s-.03-.02-.03-.02c-.05-.08-.1-.31-.36-.37-.07,0,0,.1,0,.15-.01.25-.05.51-.08.77-.01.07-.02.15.04.22.1.13.33.4.42.53.1.14.19.18.21.19.07.04.16.1.18.1.13,0,.28.04.31-.1.02.4-.01,1.1-.08,1.85l.23.15s-.06,0-.09,0c-.44-.04-.89-.46-1.06-.64.25.72.18.98.84,1.57.29.02.72-.07,1.01-.12,0,0,.4-.08.56-.12.05-.01.2-.09.45-.24.23-.15.43-.34.59-.57,0,0,0,0,0,0,.09-.12.18-.35.2-.5.08-.4.08-.69.08-.9.03-.76-.26-1.05-.47-1.27ZM16.9,16.7c-.12.36-.28.64-.46.86-.06,0-.12,0-.18,0,0-.01.01-.02.02-.04h0s.02-.03.02-.05h.02c-.01-.11-.02-.17-.03-.24,0-.03,0-.06,0-.09,0-.02,0-.02,0-.01,0,0,0-.01,0-.03v-.16c0-.28.03-1.32.03-1.32v-.03c.05-.21-.18-.33-.52-.37-.03,0-.05-.04-.03-.05.55-.45.51-.25.68-.18.3.13.47.26.49.38.06.36.04.8-.03,1.33Z"/>
    <path class="st82" d="M16.05,11.36c-.26-.14-.35-.18-.43-.27-.09-.09-.32-.43-.35-.48-.04-.06-.15-.21-.17-.24v-.07s.15.1.27.18c.09-.02.14-.05.14-.1,0,0-.01,0-.04,0,.03-.44.04-.73.03-.86,0-.08-.02-.14-.02-.19-.02.01-.03.02-.05.03-.05.04-.12.09-.21.13h0s-.01.01-.02.02h.01s-.02,0-.03,0h-.13c0-.14.13-.38.3-.64,0-.03-.09-.24-.09-.24.06-.01.12-.01.18,0l.06-.08c-.3,0-.61-.47-1.51-1.25v-.09c.01-.08.06-.12.13-.12h.1c.52,0,1.05.34,1.62,1.02.15-.24.45-.61.9-1.11,0-.02.08-.18.24-.48h.08c.06,0-.03-.06.02-.05,0-.02-.07-.02-.06-.04.15-.21.2-.55.19-.6,0-.05,0-.06.02-.02.01.04.07.17.13.26.04.07.44.61.61.85.01.01.08.12.08.12.09.15.18.06.19.21.03.34-.62.81-.62.81-.27.22-1.01.71-1.3.85.17.09.35.25.52.47v.06c-.04.21-.07.41-.1.57s-.03.32-.03.48c0,.27,0,.41,0,.41.04.1.07.27.08.51h-.02c0,.05-.04.12-.15.13h-.06c-.06,0-.12,0-.18-.02-.12-.03-.24-.08-.33-.12Z"/>
    <path class="st55" d="M18.01,24.02v-.04s-.02-.14-.02-.14c-.03-.03-.12-.13-.14-.15-.35-.22-.2-.32-.46-.35-.12-.03-.26-.05-.4-.07-.23-.02-.06.06-1.1.29-.04.04-.17-.01-.15.06.04.09.09.14.15.18,0,.01,0,.02,0,.03,0,0,0,.01,0,.02h0s0,.02,0,.03c.1.13.32.23.67.29.09.02-.02.02.09.03.06-.02.1-.03.13-.07.34-.03.25,0,.26.02l-.02.18-.37.13c-.31.14-.48.17-1.07.23-.15-.25-.24-.51-.3-.89.01-.54.07-.98.19-1.33.04-.12.22-.22.55-.3.31.02.13.1.2.26l.37.36c.02.14.18.13.3.15.02,0,.12-.04.19-.07.03-.01.12-.03.23-.16.1-.12.35-.3.46-.41.07-.06.07-.15.06-.22-.01-.26-.02-.53-.02-.78,0-.05.07-.15,0-.15-.27.02-.33.25-.39.32h-.03s-.02.01-.02.01c-.37-.21-.13-.35-.51-.41-.08-.01-.16,0-.25,0-.2,0-.72.03-1,.11-.95.25-1.33.97-1.43,1.74-.03.22-.08.5-.07.92,0,.15.05.4.12.54,0,0,0,0,0,0,.12.25.31.45.49.67.52.61.61.63,1.36.56.08,0,.19-.08.19-.08,0,0,.14-.11.18-.15.49-.42.55-.53.68-.71,0,.07,0,.07,0,.08,0,0,0,.04,0,.05-.02.11-.04.23-.05.34v.06c0,.11.07.05.03.15,0,.03-.02.07.01.1.01.01.04.02.03.04,0,0,0,0,0,0h0s0,.03.03.03h0s.02-.06.03-.03c0,0,0,.03,0,.03,0,0,0,0,.01.01-.02.1-.13.07-.19.16-.01.03.02,0,.03,0,.45-.08.6-.51.6-.51,0,0,0,0,0,0,.01-.01.02-.02.03-.03.01-.06.19-.46.28-.8,0,0,.02-.12.02-.15,0,0,0-.02,0-.03,0,0,0-.01,0-.02h0s0-.06,0-.09"/>
  </g>
  <path class="st54" d="M20.87,16.06c0-1.4-.61-2.73-1.66-3.64,1.04-.91,1.66-2.24,1.66-3.64,0-2.66-2.16-4.83-4.83-4.83s-4.83,2.16-4.83,4.83c0,1.4.61,2.73,1.66,3.64-1.04.91-1.66,2.24-1.66,3.64s.61,2.73,1.66,3.64c-1.04.91-1.66,2.24-1.66,3.64,0,2.66,2.16,4.83,4.83,4.83s4.83-2.16,4.83-4.83c0-1.4-.61-2.73-1.66-3.64,1.04-.91,1.66-2.24,1.66-3.64ZM20.5,23.34c0,2.46-2,4.46-4.46,4.46s-4.46-2-4.46-4.46c0-1.47.71-2.81,1.88-3.64-1.18-.83-1.88-2.17-1.88-3.64s.71-2.81,1.88-3.64c-1.18-.83-1.88-2.17-1.88-3.64,0-2.46,2-4.46,4.46-4.46s4.46,2,4.46,4.46c0,1.47-.71,2.81-1.88,3.64,1.18.83,1.88,2.17,1.88,3.64s-.71,2.81-1.88,3.64c1.18.83,1.88,2.17,1.88,3.64Z"/>
</svg>